<?xml version="1.0" encoding="UTF-8" standalone="no"?>
<svg
   xmlns:dc="http://purl.org/dc/elements/1.1/"
   xmlns:cc="http://creativecommons.org/ns#"
   xmlns:rdf="http://www.w3.org/1999/02/22-rdf-syntax-ns#"
   xmlns:svg="http://www.w3.org/2000/svg"
   xmlns="http://www.w3.org/2000/svg"
   xmlns:sodipodi="http://sodipodi.sourceforge.net/DTD/sodipodi-0.dtd"
   xmlns:inkscape="http://www.inkscape.org/namespaces/inkscape"
   viewBox="0 0 120.07832 158.78125"
   height="158.78125"
   width="120.07832"
   xml:space="preserve"
   id="svg2"
   version="1.1"
   sodipodi:docname="forest.svg"
   inkscape:version="0.92.4 (5da689c313, 2019-01-14)"><sodipodi:namedview
     pagecolor="#ffffff"
     bordercolor="#666666"
     borderopacity="1"
     objecttolerance="10"
     gridtolerance="10"
     guidetolerance="10"
     inkscape:pageopacity="0"
     inkscape:pageshadow="2"
     inkscape:window-width="1920"
     inkscape:window-height="1017"
     id="namedview140"
     showgrid="false"
     inkscape:zoom="1.0076756"
     inkscape:cx="381.06179"
     inkscape:cy="114.11081"
     inkscape:window-x="-8"
     inkscape:window-y="-8"
     inkscape:window-maximized="1"
     inkscape:current-layer="svg2"
     fit-margin-top="0"
     fit-margin-left="0"
     fit-margin-right="0"
     fit-margin-bottom="0" /><metadata
     id="metadata8"><rdf:RDF><cc:Work
         rdf:about=""><dc:format>image/svg+xml</dc:format><dc:type
           rdf:resource="http://purl.org/dc/dcmitype/StillImage" /><dc:title></dc:title></cc:Work></rdf:RDF></metadata><defs
     id="defs6"><filter
       y="-0.25"
       height="1.5"
       inkscape:menu-tooltip="Darkens the edge with an inner blur and adds a flexible glow"
       inkscape:menu="Shadows and Glows"
       inkscape:label="Dark and Glow"
       style="color-interpolation-filters:sRGB"
       id="filter1195"><feGaussianBlur
         stdDeviation="2"
         result="result6"
         id="feGaussianBlur1185" /><feComposite
         result="result8"
         in="SourceGraphic"
         operator="atop"
         in2="result6"
         id="feComposite1187" /><feComposite
         result="result9"
         operator="over"
         in2="SourceAlpha"
         in="result8"
         id="feComposite1189" /><feColorMatrix
         values="1 0 0 0 0 0 1 0 0 0 0 0 1 0 0 0 0 0 1 0 "
         result="result10"
         id="feColorMatrix1191" /><feBlend
         in="result10"
         mode="normal"
         in2="result6"
         id="feBlend1193" /></filter><clipPath
       clipPathUnits="userSpaceOnUse"
       id="clipPath1917"><rect
         style="opacity:1;fill:#cc785f;fill-opacity:0.25367647;fill-rule:nonzero;stroke:none;stroke-width:2;stroke-miterlimit:4;stroke-dasharray:none;stroke-opacity:1"
         id="rect1919"
         width="120.07832"
         height="158.78125"
         x="57.558205"
         y="314.55893" /></clipPath></defs><g
     id="g1915"
     clip-path="url(#clipPath1917)"
     transform="translate(-57.558205,-314.55893)"><path
       inkscape:connector-curvature="0"
       d="M 112.0172,638.99467 159.56266,-0.00397807 H 176.584 L 140.65866,638.99467 H 112.0172"
       style="fill:#9e391e;fill-opacity:1;fill-rule:evenodd;stroke:none;stroke-width:0.13333333"
       id="path110" /><g
       id="g1798"><g
         id="g1687"><path
           inkscape:connector-curvature="0"
           d="M 0,877.24 H 877.24398 V -0.00397807 H 0 V 877.24"
           style="fill:#f2f9d1;fill-opacity:1;fill-rule:evenodd;stroke:none;stroke-width:0.13333333"
           id="path14" /><path
           inkscape:connector-curvature="0"
           d="M 877.24398,133.96669 H 0 v 5.34666 H 877.24398 Z M 0,242.70135 h 877.24398 v 17.824 H 0 Z M 0,43.056021 H 877.24398 V 80.489353 H 0 v -37.433332 0"
           style="fill:#fafce6;fill-opacity:1;fill-rule:evenodd;stroke:none;stroke-width:0.13333333"
           id="path16" /><path
           inkscape:connector-curvature="0"
           d="m 0,328.24268 188.716,-108.956 278.11732,160.572 175.40266,-101.26933 235.008,135.68133 V 667.64267 H 0 V 328.24268"
           style="fill:#cbe465;fill-opacity:1;fill-rule:evenodd;stroke:none;stroke-width:0.13333333"
           id="path18" /><path
           inkscape:connector-curvature="0"
           d="m 0,507.62134 195.332,-112.77466 146.42266,84.53866 181.48666,-104.77999 217.61999,125.64133 84.46667,-48.76534 51.916,29.97467 V 681.15334 L 0,667.64267 V 507.62134"
           style="fill:#b2cc4b;fill-opacity:1;fill-rule:evenodd;stroke:none;stroke-width:0.13333333"
           id="path20" /><path
           inkscape:connector-curvature="0"
           d="m 723.50532,642.90134 c -7.94934,-49.83733 -3.024,-80.43867 12.26533,-95.55067 -18.09467,9.66 -27.95333,41.616 -29.69333,95.55067 5.80933,0 11.61866,0 17.428,0"
           style="fill:#597528;fill-opacity:1;fill-rule:evenodd;stroke:none;stroke-width:0.13333333"
           id="path22" /><path
           inkscape:connector-curvature="0"
           d="m 710.46798,643.38801 c -9.48,-59.432 -3.60666,-95.92 14.62667,-113.94267 -21.57867,11.52134 -33.33467,49.62533 -35.41067,113.94267 6.92667,0 13.856,0 20.784,0"
           style="fill:#597528;fill-opacity:1;fill-rule:evenodd;stroke:none;stroke-width:0.13333333"
           id="path24" /><path
           inkscape:connector-curvature="0"
           d="m 527.90665,646.80667 c 2.376,-49.83733 -5.968,-80.43866 -22.948,-95.55066 19.176,9.66 32.60667,41.616 40.376,95.55066 -5.80933,0 -11.61733,0 -17.428,0"
           style="fill:#597528;fill-opacity:1;fill-rule:evenodd;stroke:none;stroke-width:0.13333333"
           id="path26" /><path
           inkscape:connector-curvature="0"
           d="m 674.07465,643.77201 c 2.37733,-62.31867 -5.96533,-100.58133 -22.94533,-119.47867 19.17466,12.08 32.60533,52.03467 40.376,119.47867 -5.80934,0 -11.61867,0 -17.43067,0"
           style="fill:#597528;fill-opacity:1;fill-rule:evenodd;stroke:none;stroke-width:0.13333333"
           id="path28" /><path
           inkscape:connector-curvature="0"
           d="m 562.80665,642.92801 c -7.948,-49.84 -3.024,-80.43867 12.26534,-95.552 -18.09467,9.66133 -27.95467,41.616 -29.69334,95.552 5.808,0 11.61867,0 17.428,0"
           style="fill:#597528;fill-opacity:1;fill-rule:evenodd;stroke:none;stroke-width:0.13333333"
           id="path30" /><path
           inkscape:connector-curvature="0"
           d="m 566.31599,651.36534 c 2.37866,-49.83733 -5.96667,-80.43867 -22.94667,-95.55067 19.17467,9.66134 32.608,41.61467 40.37733,95.55067 -5.81066,0 -11.62133,0 -17.43066,0"
           style="fill:#597528;fill-opacity:1;fill-rule:evenodd;stroke:none;stroke-width:0.13333333"
           id="path32" /><path
           inkscape:connector-curvature="0"
           d="m 642.97998,658.69201 c 2.37734,-62.32134 -5.96933,-100.584 -22.94533,-119.48133 19.17333,12.08266 32.604,52.03733 40.37333,119.48133 -5.80666,0 -11.61866,0 -17.428,0"
           style="fill:#597528;fill-opacity:1;fill-rule:evenodd;stroke:none;stroke-width:0.13333333"
           id="path34" /><path
           inkscape:connector-curvature="0"
           d="m 670.57065,642.24934 c -7.94933,-49.836 -3.024,-80.43867 12.26533,-95.55067 -18.09333,9.66134 -27.952,41.616 -29.69466,95.55067 5.81066,0 11.62133,0 17.42933,0"
           style="fill:#597528;fill-opacity:1;fill-rule:evenodd;stroke:none;stroke-width:0.13333333"
           id="path36" /><path
           inkscape:connector-curvature="0"
           d="m 640.55332,645.83201 c -7.948,-49.84 -3.02534,-80.43867 12.26533,-95.55067 -18.09467,9.66133 -27.95333,41.61467 -29.69467,95.55067 5.81067,0 11.62,0 17.42934,0"
           style="fill:#597528;fill-opacity:1;fill-rule:evenodd;stroke:none;stroke-width:0.13333333"
           id="path38" /><path
           inkscape:connector-curvature="0"
           d="m 515.23999,642.99201 c -9.48,-59.432 -3.60667,-95.92134 14.628,-113.944 -21.58,11.52267 -33.336,49.62666 -35.41334,113.944 6.92934,0 13.85734,0 20.78534,0"
           style="fill:#597528;fill-opacity:1;fill-rule:evenodd;stroke:none;stroke-width:0.13333333"
           id="path40" /><path
           inkscape:connector-curvature="0"
           d="m 612.47198,646.15867 c -7.948,-49.84 -3.02266,-80.43866 12.26534,-95.55333 -18.09334,9.66133 -27.95467,41.616 -29.69333,95.55333 5.80933,0 11.61866,0 17.42799,0"
           style="fill:#597528;fill-opacity:1;fill-rule:evenodd;stroke:none;stroke-width:0.13333333"
           id="path42" /><path
           inkscape:connector-curvature="0"
           d="m 486.91332,649.22534 c 1.22933,-49.33467 11.792,-75.61067 29.864,-83.31867 -19.872,1.51867 -35.61733,27.02267 -47.292,76.17734 5.80933,2.38133 11.62133,4.76133 17.428,7.14133"
           style="fill:#597528;fill-opacity:1;fill-rule:evenodd;stroke:none;stroke-width:0.13333333"
           id="path44" /><path
           inkscape:connector-curvature="0"
           d="m 450.97199,642.15201 c 2.37733,-49.84 -5.96933,-80.43867 -22.94533,-95.55067 19.172,9.66133 32.60533,41.61467 40.37599,95.55067 -5.81199,0 -11.62266,0 -17.43066,0"
           style="fill:#597528;fill-opacity:1;fill-rule:evenodd;stroke:none;stroke-width:0.13333333"
           id="path46" /><path
           inkscape:connector-curvature="0"
           d="m 443.98799,643.87734 c 1.90933,-55.27333 12.88933,-89.208 31.168,-105.96933 -20.004,10.71466 -36.18667,46.15333 -48.59733,105.96933 5.808,0 11.62,0 17.42933,0"
           style="fill:#597528;fill-opacity:1;fill-rule:evenodd;stroke:none;stroke-width:0.13333333"
           id="path48" /><path
           inkscape:connector-curvature="0"
           d="m 423.00666,650.06534 c -7.948,-49.84 -3.02134,-80.43867 12.26666,-95.55333 -18.09466,9.66266 -27.95466,41.616 -29.69466,95.55333 5.80933,0 11.61866,0 17.428,0"
           style="fill:#597528;fill-opacity:1;fill-rule:evenodd;stroke:none;stroke-width:0.13333333"
           id="path50" /><path
           inkscape:connector-curvature="0"
           d="m 383.58266,648.98134 c 2.37866,-62.32133 -5.96667,-100.584 -22.94667,-119.48133 19.176,12.08 32.60533,52.03733 40.37467,119.48133 -5.80934,0 -11.61867,0 -17.428,0"
           style="fill:#597528;fill-opacity:1;fill-rule:evenodd;stroke:none;stroke-width:0.13333333"
           id="path52" /><path
           inkscape:connector-curvature="0"
           d="m 331.34133,643.22667 c -7.94934,-49.83733 -3.024,-80.43733 12.26666,-95.54933 -18.09733,9.66 -27.956,41.61333 -29.696,95.54933 5.81067,0 11.61867,0 17.42934,0"
           style="fill:#597528;fill-opacity:1;fill-rule:evenodd;stroke:none;stroke-width:0.13333333"
           id="path54" /><path
           inkscape:connector-curvature="0"
           d="m 274.85599,660.32267 c 2.37734,-49.84 -5.968,-80.43866 -22.94666,-95.552 19.17466,9.66267 32.60533,41.616 40.376,95.552 -5.80934,0 -11.62,0 -17.42934,0"
           style="fill:#597528;fill-opacity:1;fill-rule:evenodd;stroke:none;stroke-width:0.13333333"
           id="path56" /><path
           inkscape:connector-curvature="0"
           d="m 293.20666,643.12134 c 2.37867,-62.32133 -5.96667,-100.58266 -22.94667,-119.48266 19.176,12.08133 32.60667,52.03866 40.37734,119.48266 -5.81067,0 -11.62,0 -17.43067,0"
           style="fill:#597528;fill-opacity:1;fill-rule:evenodd;stroke:none;stroke-width:0.13333333"
           id="path58" /><path
           inkscape:connector-curvature="0"
           d="m 343.34932,656.83201 c 1.90934,-55.27334 12.888,-89.208 31.168,-105.97067 -20.008,10.716 -36.18666,46.15333 -48.59866,105.97067 5.81067,0 11.62,0 17.43066,0"
           style="fill:#597528;fill-opacity:1;fill-rule:evenodd;stroke:none;stroke-width:0.13333333"
           id="path60" /><path
           inkscape:connector-curvature="0"
           d="m 355.87066,644.85601 c 2.37866,-49.84 -5.968,-80.44 -22.94533,-95.552 19.17466,9.66133 32.60533,41.61333 40.37599,95.552 -5.812,0 -11.61866,0 -17.43066,0"
           style="fill:#597528;fill-opacity:1;fill-rule:evenodd;stroke:none;stroke-width:0.13333333"
           id="path62" /><path
           inkscape:connector-curvature="0"
           d="m 156.33066,650.25201 c -2.37866,-49.83734 5.96667,-80.43734 22.94534,-95.54934 -19.17467,9.66 -32.60534,41.616 -40.376,95.54934 5.80933,0 11.62,0 17.43066,0"
           style="fill:#597528;fill-opacity:1;fill-rule:evenodd;stroke:none;stroke-width:0.13333333"
           id="path64" /><path
           inkscape:connector-curvature="0"
           d="m 121.42866,646.37467 c 7.94947,-49.84 3.024,-80.43866 -12.26466,-95.55066 18.09386,9.66 27.95333,41.61333 29.69466,95.55066 -5.8108,0 -11.6212,0 -17.43,0"
           style="fill:#597528;fill-opacity:1;fill-rule:evenodd;stroke:none;stroke-width:0.13333333"
           id="path66" /><path
           inkscape:connector-curvature="0"
           d="m 117.91933,654.81201 c -2.3776,-49.83734 5.96707,-80.43867 22.946,-95.55067 -19.1736,9.66 -32.60547,41.61333 -40.3752,95.55067 5.80933,0 11.61867,0 17.4292,0"
           style="fill:#597528;fill-opacity:1;fill-rule:evenodd;stroke:none;stroke-width:0.13333333"
           id="path68" /><path
           inkscape:connector-curvature="0"
           d="m 168.996,646.43867 c 9.47866,-59.43333 3.60666,-95.92133 -14.62667,-113.94399 21.57733,11.52266 33.33467,49.62533 35.40933,113.94399 -6.92666,0 -13.856,0 -20.78266,0"
           style="fill:#597528;fill-opacity:1;fill-rule:evenodd;stroke:none;stroke-width:0.13333333"
           id="path70" /><path
           inkscape:connector-curvature="0"
           d="m 71.762532,649.60401 c 7.950533,-49.83867 3.024399,-80.43734 -12.264667,-95.552 18.093866,9.66266 27.953199,41.616 29.694266,95.552 -5.809333,0 -11.6192,0 -17.429599,0"
           style="fill:#597528;fill-opacity:1;fill-rule:evenodd;stroke:none;stroke-width:0.13333333"
           id="path72" /><path
           inkscape:connector-curvature="0"
           d="m 197.32,652.67201 c -1.22934,-49.336 -11.78934,-75.61067 -29.86134,-83.31867 19.87334,1.51867 35.61733,27.02267 47.292,76.17733 -5.80933,2.38134 -11.62,4.76134 -17.43066,7.14134"
           style="fill:#597528;fill-opacity:1;fill-rule:evenodd;stroke:none;stroke-width:0.13333333"
           id="path74" /><path
           inkscape:connector-curvature="0"
           d="m 233.26399,645.59867 c -2.37733,-49.84 5.96667,-80.43866 22.94667,-95.55066 -19.17467,9.66 -32.60667,41.61466 -40.37733,95.55066 5.812,0 11.62133,0 17.43066,0"
           style="fill:#597528;fill-opacity:1;fill-rule:evenodd;stroke:none;stroke-width:0.13333333"
           id="path76" /><path
           inkscape:connector-curvature="0"
           d="m 240.24933,647.32401 c -1.912,-55.272 -12.89067,-89.20934 -31.16934,-105.96933 20.00534,10.71333 36.18667,46.15333 48.59734,105.96933 -5.80934,0 -11.62,0 -17.428,0"
           style="fill:#597528;fill-opacity:1;fill-rule:evenodd;stroke:none;stroke-width:0.13333333"
           id="path78" /><path
           inkscape:connector-curvature="0"
           d="m 44.398932,645.34667 c 2.3776,-49.84 -5.9672,-80.43866 -22.946266,-95.55066 19.174933,9.66133 32.605733,41.61466 40.375999,95.55066 -5.809866,0 -11.620266,0 -17.429733,0"
           style="fill:#597528;fill-opacity:1;fill-rule:evenodd;stroke:none;stroke-width:0.13333333"
           id="path80" /><path
           inkscape:connector-curvature="0"
           d="m 73.507865,647.47867 c -2.378133,-62.31866 5.9672,-100.58133 22.946266,-119.47999 -19.173466,12.08133 -32.605733,52.03599 -40.375999,119.47999 5.809866,0 11.620266,0 17.429733,0"
           style="fill:#597528;fill-opacity:1;fill-rule:evenodd;stroke:none;stroke-width:0.13333333"
           id="path82" /><path
           inkscape:connector-curvature="0"
           d="m 20.809866,646.64801 c 1.986533,-41.608 -4.981733,-67.15334 -19.1556927,-79.76934 16.0072927,8.06534 27.2198257,34.74134 33.7072927,79.76934 -4.850533,0 -9.700533,0 -14.5516,0"
           style="fill:#597528;fill-opacity:1;fill-rule:evenodd;stroke:none;stroke-width:0.13333333"
           id="path84" /><path
           inkscape:connector-curvature="0"
           d="m 746.53865,648.46534 c -2.37867,-62.32 5.96666,-100.58267 22.94666,-119.48133 -19.17466,12.08267 -32.60533,52.03733 -40.37599,119.48133 5.80933,0 11.61866,0 17.42933,0"
           style="fill:#597528;fill-opacity:1;fill-rule:evenodd;stroke:none;stroke-width:0.13333333"
           id="path86" /><path
           inkscape:connector-curvature="0"
           d="m 857.80665,647.62134 c 7.95066,-49.84 3.02533,-80.43867 -12.26534,-95.55067 18.09334,9.66 27.95333,41.61334 29.69333,95.55067 -5.80933,0 -11.61866,0 -17.42799,0"
           style="fill:#597528;fill-opacity:1;fill-rule:evenodd;stroke:none;stroke-width:0.13333333"
           id="path88" /><path
           inkscape:connector-curvature="0"
           d="m 854.29865,656.05867 c -2.38,-49.83733 5.96666,-80.43866 22.94533,-95.55066 -19.17467,9.66 -32.60667,41.616 -40.376,95.55066 5.80933,0 11.61867,0 17.43067,0"
           style="fill:#597528;fill-opacity:1;fill-rule:evenodd;stroke:none;stroke-width:0.13333333"
           id="path90" /><path
           inkscape:connector-curvature="0"
           d="m 777.63465,663.38534 c -2.38,-62.32133 5.96666,-100.584 22.94533,-119.48133 -19.17467,12.08 -32.60533,52.03733 -40.376,119.48133 5.80933,0 11.62,0 17.43067,0"
           style="fill:#597528;fill-opacity:1;fill-rule:evenodd;stroke:none;stroke-width:0.13333333"
           id="path92" /><path
           inkscape:connector-curvature="0"
           d="m 750.04131,646.94267 c 7.95067,-49.83733 3.024,-80.436 -12.264,-95.55066 18.09467,9.66 27.95467,41.616 29.69467,95.55066 -5.80933,0 -11.61867,0 -17.43067,0"
           style="fill:#597528;fill-opacity:1;fill-rule:evenodd;stroke:none;stroke-width:0.13333333"
           id="path94" /><path
           inkscape:connector-curvature="0"
           d="m 780.05865,650.52401 c 7.95066,-49.83867 3.02533,-80.43867 -12.26534,-95.55067 18.096,9.66133 27.95734,41.61467 29.69734,95.55067 -5.81067,0 -11.61867,0 -17.432,0"
           style="fill:#597528;fill-opacity:1;fill-rule:evenodd;stroke:none;stroke-width:0.13333333"
           id="path96" /><path
           inkscape:connector-curvature="0"
           d="m 808.13998,650.85067 c 7.95067,-49.83866 3.02533,-80.43733 -12.264,-95.552 18.09333,9.66267 27.95333,41.61467 29.69333,95.552 -5.808,0 -11.62,0 -17.42933,0"
           style="fill:#597528;fill-opacity:1;fill-rule:evenodd;stroke:none;stroke-width:0.13333333"
           id="path98" /><path
           inkscape:connector-curvature="0"
           d="M 738.00798,211.55735 842.15465,-0.00397807 h 2.90933 l -95.152,246.87465807 -11.904,-35.31333"
           style="fill:#5c2314;fill-opacity:1;fill-rule:evenodd;stroke:none;stroke-width:0.13333333"
           id="path100" /><path
           inkscape:connector-curvature="0"
           d="M 753.82665,156.48535 842.15465,-0.00397807 758.91331,169.09468 Z"
           style="fill:#9e391e;fill-opacity:1;fill-rule:evenodd;stroke:none;stroke-width:0.13333333"
           id="path102" /><path
           inkscape:connector-curvature="0"
           d="M 140.65866,638.99467 176.584,-0.00397807 H 124.4964 L 44.647866,638.99467 h 96.010794"
           style="fill:#5c2314;fill-opacity:1;fill-rule:evenodd;stroke:none;stroke-width:0.13333333"
           id="path104" /><path
           inkscape:connector-curvature="0"
           d="M 757.29998,638.99467 709.30265,-0.00397807 h 33.24266 L 818.57465,638.99467 h -61.27467"
           style="fill:#5c2314;fill-opacity:1;fill-rule:evenodd;stroke:none;stroke-width:0.13333333"
           id="path106" /><path
           inkscape:connector-curvature="0"
           d="M 775.58131,638.99467 720.16532,-0.00397807 H 709.30265 L 757.29998,638.99467 h 18.28133"
           style="fill:#9e391e;fill-opacity:1;fill-rule:evenodd;stroke:none;stroke-width:0.13333333"
           id="path108" /><path
           inkscape:connector-curvature="0"
           d="m 155.392,642.90134 c 7.94933,-49.83733 3.024,-80.43867 -12.26534,-95.55067 18.09467,9.66 27.95334,41.616 29.69334,95.55067 -5.80934,0 -11.61867,0 -17.428,0"
           style="fill:#769a2a;fill-opacity:1;fill-rule:evenodd;stroke:none;stroke-width:0.13333333"
           id="path112" /><path
           inkscape:connector-curvature="0"
           d="m 168.42933,643.38801 c 9.47867,-59.432 3.60533,-95.92 -14.62533,-113.94267 21.576,11.52134 33.33333,49.62533 35.40933,113.94267 -6.928,0 -13.856,0 -20.784,0"
           style="fill:#769a2a;fill-opacity:1;fill-rule:evenodd;stroke:none;stroke-width:0.13333333"
           id="path114" /><path
           inkscape:connector-curvature="0"
           d="m 350.99199,646.80667 c -2.37867,-49.83733 5.968,-80.43866 22.94533,-95.55066 -19.17333,9.66 -32.60666,41.616 -40.376,95.55066 5.81067,0 11.61867,0 17.43067,0"
           style="fill:#769a2a;fill-opacity:1;fill-rule:evenodd;stroke:none;stroke-width:0.13333333"
           id="path116" /><path
           inkscape:connector-curvature="0"
           d="m 204.82133,643.77201 c -2.37734,-62.31867 5.968,-100.58133 22.94666,-119.47867 -19.17333,12.08 -32.60533,52.03467 -40.37599,119.47867 5.80933,0 11.62,0 17.42933,0"
           style="fill:#769a2a;fill-opacity:1;fill-rule:evenodd;stroke:none;stroke-width:0.13333333"
           id="path118" /><path
           inkscape:connector-curvature="0"
           d="m 316.08933,642.92801 c 7.94933,-49.84 3.024,-80.43867 -12.264,-95.552 18.09466,9.66133 27.95333,41.616 29.69333,95.552 -5.808,0 -11.61867,0 -17.42933,0"
           style="fill:#769a2a;fill-opacity:1;fill-rule:evenodd;stroke:none;stroke-width:0.13333333"
           id="path120" /><path
           inkscape:connector-curvature="0"
           d="m 312.58133,651.36534 c -2.38,-49.83733 5.968,-80.43867 22.94666,-95.55067 -19.17466,9.66134 -32.60666,41.61467 -40.376,95.55067 5.80934,0 11.61867,0 17.42934,0"
           style="fill:#769a2a;fill-opacity:1;fill-rule:evenodd;stroke:none;stroke-width:0.13333333"
           id="path122" /><path
           inkscape:connector-curvature="0"
           d="m 235.91733,658.69201 c -2.37734,-62.32134 5.968,-100.584 22.94666,-119.48133 -19.17466,12.08266 -32.60666,52.03733 -40.376,119.48133 5.80934,0 11.61867,0 17.42934,0"
           style="fill:#769a2a;fill-opacity:1;fill-rule:evenodd;stroke:none;stroke-width:0.13333333"
           id="path124" /><path
           inkscape:connector-curvature="0"
           d="m 208.32666,642.24934 c 7.94933,-49.836 3.024,-80.43867 -12.26666,-95.55067 18.09599,9.66134 27.95466,41.616 29.69599,95.55067 -5.81066,0 -11.62,0 -17.42933,0"
           style="fill:#769a2a;fill-opacity:1;fill-rule:evenodd;stroke:none;stroke-width:0.13333333"
           id="path126" /><path
           inkscape:connector-curvature="0"
           d="m 238.34399,645.83201 c 7.94934,-49.84 3.024,-80.43867 -12.26533,-95.55067 18.09333,9.66133 27.95333,41.61467 29.69467,95.55067 -5.80934,0 -11.62,0 -17.42934,0"
           style="fill:#769a2a;fill-opacity:1;fill-rule:evenodd;stroke:none;stroke-width:0.13333333"
           id="path128" /><path
           inkscape:connector-curvature="0"
           d="m 363.65732,642.99201 c 9.47867,-59.432 3.60534,-95.92134 -14.62666,-113.944 21.57866,11.52267 33.33333,49.62666 35.41066,113.944 -6.92666,0 -13.85733,0 -20.784,0"
           style="fill:#769a2a;fill-opacity:1;fill-rule:evenodd;stroke:none;stroke-width:0.13333333"
           id="path130" /><path
           inkscape:connector-curvature="0"
           d="m 266.42399,646.15867 c 7.94934,-49.84 3.024,-80.43866 -12.264,-95.55333 18.09334,9.66133 27.952,41.616 29.69334,95.55333 -5.80934,0 -11.62,0 -17.42934,0"
           style="fill:#769a2a;fill-opacity:1;fill-rule:evenodd;stroke:none;stroke-width:0.13333333"
           id="path132" /><path
           inkscape:connector-curvature="0"
           d="m 391.98266,649.22534 c -1.22934,-49.33467 -11.79067,-75.61067 -29.864,-83.31867 19.87466,1.51867 35.62,27.02267 47.292,76.17734 -5.80934,2.38133 -11.61867,4.76133 -17.428,7.14133"
           style="fill:#769a2a;fill-opacity:1;fill-rule:evenodd;stroke:none;stroke-width:0.13333333"
           id="path134" /><path
           inkscape:connector-curvature="0"
           d="m 427.92399,642.15201 c -2.37733,-49.84 5.96933,-80.43867 22.948,-95.55067 -19.17467,9.66133 -32.60533,41.61467 -40.376,95.55067 5.80933,0 11.61867,0 17.428,0"
           style="fill:#769a2a;fill-opacity:1;fill-rule:evenodd;stroke:none;stroke-width:0.13333333"
           id="path136" /><path
           inkscape:connector-curvature="0"
           d="m 434.91066,643.87734 c -1.912,-55.27333 -12.89067,-89.208 -31.16934,-105.96933 20.00534,10.71466 36.188,46.15333 48.59734,105.96933 -5.80934,0 -11.62,0 -17.428,0"
           style="fill:#769a2a;fill-opacity:1;fill-rule:evenodd;stroke:none;stroke-width:0.13333333"
           id="path138" /><path
           inkscape:connector-curvature="0"
           d="m 455.88932,650.06534 c 7.94934,-49.84 3.024,-80.43867 -12.26666,-95.55333 18.096,9.66266 27.95466,41.616 29.69733,95.55333 -5.812,0 -11.61867,0 -17.43067,0"
           style="fill:#769a2a;fill-opacity:1;fill-rule:evenodd;stroke:none;stroke-width:0.13333333"
           id="path140" /><path
           inkscape:connector-curvature="0"
           d="m 495.31599,648.98134 c -2.37867,-62.32133 5.96533,-100.584 22.94533,-119.48133 -19.17467,12.08 -32.60533,52.03733 -40.376,119.48133 5.80933,0 11.61867,0 17.43067,0"
           style="fill:#769a2a;fill-opacity:1;fill-rule:evenodd;stroke:none;stroke-width:0.13333333"
           id="path142" /><path
           inkscape:connector-curvature="0"
           d="m 547.55599,643.22667 c 7.95066,-49.83733 3.02533,-80.43733 -12.26534,-95.54933 18.09467,9.66 27.95467,41.61333 29.69467,95.54933 -5.81067,0 -11.61867,0 -17.42933,0"
           style="fill:#769a2a;fill-opacity:1;fill-rule:evenodd;stroke:none;stroke-width:0.13333333"
           id="path144" /><path
           inkscape:connector-curvature="0"
           d="m 604.04132,660.32267 c -2.37867,-49.84 5.968,-80.43866 22.948,-95.552 -19.176,9.66267 -32.60667,41.616 -40.37733,95.552 5.80933,0 11.61866,0 17.42933,0"
           style="fill:#769a2a;fill-opacity:1;fill-rule:evenodd;stroke:none;stroke-width:0.13333333"
           id="path146" /><path
           inkscape:connector-curvature="0"
           d="m 585.69065,643.12134 c -2.37866,-62.32133 5.968,-100.58266 22.94533,-119.48266 -19.17333,12.08133 -32.60666,52.03866 -40.37599,119.48266 5.81066,0 11.62133,0 17.43066,0"
           style="fill:#769a2a;fill-opacity:1;fill-rule:evenodd;stroke:none;stroke-width:0.13333333"
           id="path148" /><path
           inkscape:connector-curvature="0"
           d="m 535.54799,656.83201 c -1.91067,-55.27334 -12.88667,-89.208 -31.16667,-105.97067 20.00533,10.716 36.18533,46.15333 48.59733,105.97067 -5.81066,0 -11.62,0 -17.43066,0"
           style="fill:#769a2a;fill-opacity:1;fill-rule:evenodd;stroke:none;stroke-width:0.13333333"
           id="path150" /><path
           inkscape:connector-curvature="0"
           d="m 523.02532,644.85601 c -2.37733,-49.84 5.96933,-80.44 22.94533,-95.552 -19.172,9.66133 -32.604,41.61333 -40.37333,95.552 5.80933,0 11.61867,0 17.428,0"
           style="fill:#769a2a;fill-opacity:1;fill-rule:evenodd;stroke:none;stroke-width:0.13333333"
           id="path152" /><path
           inkscape:connector-curvature="0"
           d="m 722.56798,650.25201 c 2.37867,-49.83734 -5.968,-80.43734 -22.948,-95.54934 19.176,9.66 32.60667,41.616 40.37733,95.54934 -5.80933,0 -11.61866,0 -17.42933,0"
           style="fill:#769a2a;fill-opacity:1;fill-rule:evenodd;stroke:none;stroke-width:0.13333333"
           id="path154" /><path
           inkscape:connector-curvature="0"
           d="m 757.46798,646.37467 c -7.948,-49.84 -3.02267,-80.43866 12.26533,-95.55066 -18.09333,9.66 -27.95466,41.61333 -29.69333,95.55066 5.808,0 11.61867,0 17.428,0"
           style="fill:#769a2a;fill-opacity:1;fill-rule:evenodd;stroke:none;stroke-width:0.13333333"
           id="path156" /><path
           inkscape:connector-curvature="0"
           d="m 760.97865,654.81201 c 2.37733,-49.83734 -5.96934,-80.43867 -22.94667,-95.55067 19.17333,9.66 32.604,41.61333 40.37467,95.55067 -5.80934,0 -11.62,0 -17.428,0"
           style="fill:#769a2a;fill-opacity:1;fill-rule:evenodd;stroke:none;stroke-width:0.13333333"
           id="path158" /><path
           inkscape:connector-curvature="0"
           d="m 709.90265,646.43867 c -9.48,-59.43333 -3.608,-95.92133 14.624,-113.94399 -21.576,11.52266 -33.33333,49.62533 -35.41067,113.94399 6.92934,0 13.85734,0 20.78667,0"
           style="fill:#769a2a;fill-opacity:1;fill-rule:evenodd;stroke:none;stroke-width:0.13333333"
           id="path160" /><path
           inkscape:connector-curvature="0"
           d="m 807.13331,649.60401 c -7.94933,-49.83867 -3.024,-80.43734 12.26534,-95.552 -18.09334,9.66266 -27.95334,41.616 -29.69334,95.552 5.80934,0 11.62,0 17.428,0"
           style="fill:#769a2a;fill-opacity:1;fill-rule:evenodd;stroke:none;stroke-width:0.13333333"
           id="path162" /><path
           inkscape:connector-curvature="0"
           d="m 681.57598,652.67201 c 1.22934,-49.336 11.79067,-75.61067 29.864,-83.31867 -19.876,1.51867 -35.61866,27.02267 -47.292,76.17733 5.808,2.38134 11.61867,4.76134 17.428,7.14134"
           style="fill:#769a2a;fill-opacity:1;fill-rule:evenodd;stroke:none;stroke-width:0.13333333"
           id="path164" /><path
           inkscape:connector-curvature="0"
           d="m 645.63332,645.59867 c 2.37733,-49.84 -5.968,-80.43866 -22.948,-95.55066 19.176,9.66 32.60666,41.61466 40.376,95.55066 -5.80934,0 -11.61734,0 -17.428,0"
           style="fill:#769a2a;fill-opacity:1;fill-rule:evenodd;stroke:none;stroke-width:0.13333333"
           id="path166" /><path
           inkscape:connector-curvature="0"
           d="m 638.65065,647.32401 c 1.908,-55.272 12.888,-89.20934 31.16667,-105.96933 -20.00667,10.71333 -36.18667,46.15333 -48.59734,105.96933 5.808,0 11.62,0 17.43067,0"
           style="fill:#769a2a;fill-opacity:1;fill-rule:evenodd;stroke:none;stroke-width:0.13333333"
           id="path168" /><path
           inkscape:connector-curvature="0"
           d="m 834.49865,645.34667 c -2.37867,-49.84 5.968,-80.43866 22.94533,-95.55066 -19.172,9.66133 -32.604,41.61466 -40.37467,95.55066 5.81067,0 11.62,0 17.42934,0"
           style="fill:#769a2a;fill-opacity:1;fill-rule:evenodd;stroke:none;stroke-width:0.13333333"
           id="path170" /><path
           inkscape:connector-curvature="0"
           d="m 805.38931,647.47867 c 2.37867,-62.31866 -5.968,-100.58133 -22.94666,-119.47999 19.17333,12.08133 32.60533,52.03599 40.376,119.47999 -5.81067,0 -11.62,0 -17.42934,0"
           style="fill:#769a2a;fill-opacity:1;fill-rule:evenodd;stroke:none;stroke-width:0.13333333"
           id="path172" /><path
           inkscape:connector-curvature="0"
           d="m 858.08665,646.64801 c -1.984,-41.608 4.98266,-67.15334 19.15733,-79.76934 -16.008,8.06534 -27.22,34.74134 -33.708,79.76934 4.852,0 9.7,0 14.55067,0"
           style="fill:#769a2a;fill-opacity:1;fill-rule:evenodd;stroke:none;stroke-width:0.13333333"
           id="path174" /><path
           inkscape:connector-curvature="0"
           d="m 132.3588,648.46534 c 2.3772,-62.32 -5.9676,-100.58267 -22.9468,-119.48133 19.1744,12.08267 32.60666,52.03733 40.376,119.48133 -5.80934,0 -11.61867,0 -17.4292,0"
           style="fill:#769a2a;fill-opacity:1;fill-rule:evenodd;stroke:none;stroke-width:0.13333333"
           id="path176" /><path
           inkscape:connector-curvature="0"
           d="m 21.090133,647.62134 c -7.949507,-49.84 -3.024,-80.43867 12.266133,-95.55067 -18.095333,9.66 -27.9547061,41.61334 -29.6948128,95.55067 5.8093866,0 11.6197468,0 17.4286798,0"
           style="fill:#769a2a;fill-opacity:1;fill-rule:evenodd;stroke:none;stroke-width:0.13333333"
           id="path178" /><path
           inkscape:connector-curvature="0"
           d="m 24.599466,656.05867 c 2.378667,-49.83733 -5.9672,-80.43866 -22.946346,-95.55066 19.175013,9.66 32.605679,41.616 40.376079,95.55066 -5.8104,0 -11.619333,0 -17.429733,0"
           style="fill:#769a2a;fill-opacity:1;fill-rule:evenodd;stroke:none;stroke-width:0.13333333"
           id="path180" /><path
           inkscape:connector-curvature="0"
           d="m 101.2636,663.38534 c 2.37813,-62.32133 -5.968802,-100.584 -22.946402,-119.48133 19.174,12.08 32.606262,52.03733 40.376002,119.48133 -5.80987,0 -11.62027,0 -17.4296,0"
           style="fill:#769a2a;fill-opacity:1;fill-rule:evenodd;stroke:none;stroke-width:0.13333333"
           id="path182" /><path
           inkscape:connector-curvature="0"
           d="m 128.85466,646.94267 c -7.95,-49.83733 -3.024,-80.436 12.26534,-95.55066 -18.09454,9.66 -27.95334,41.616 -29.69494,95.55066 5.80987,0 11.6192,0 17.4296,0"
           style="fill:#769a2a;fill-opacity:1;fill-rule:evenodd;stroke:none;stroke-width:0.13333333"
           id="path184" /><path
           inkscape:connector-curvature="0"
           d="m 98.836398,650.52401 c -7.948934,-49.83867 -3.023334,-80.43867 12.265732,-95.55067 -18.094799,9.66133 -27.953732,41.61467 -29.695332,95.55067 5.809866,0 11.620266,0 17.4296,0"
           style="fill:#769a2a;fill-opacity:1;fill-rule:evenodd;stroke:none;stroke-width:0.13333333"
           id="path186" /><path
           inkscape:connector-curvature="0"
           d="m 70.756798,650.85067 c -7.95,-49.83866 -3.024533,-80.43733 12.264533,-95.552 -18.094266,9.66267 -27.954132,41.61467 -29.693732,95.552 5.8088,0 11.619733,0 17.429199,0"
           style="fill:#769a2a;fill-opacity:1;fill-rule:evenodd;stroke:none;stroke-width:0.13333333"
           id="path188" /><path
           inkscape:connector-curvature="0"
           d="M 0,877.24 H 877.24398 V 696.29334 H 0 V 877.24"
           style="fill:#99351d;fill-opacity:1;fill-rule:evenodd;stroke:none;stroke-width:0.13333333"
           id="path190" /><path
           inkscape:connector-curvature="0"
           d="m 54.432265,803.75454 c 2.8828,-8.85467 -2.116133,-10.60774 -9.789599,-7.9932 -31.77964,10.8344 -10.7624,51.85986 9.789599,7.9932 z m 62.272935,17.36253 c 15.6308,-14.24893 2.57186,-34.48493 -13.68747,-32.388 -27.494265,3.5484 -13.305199,48.33066 13.68747,32.388 z m 28.77746,-99.4304 c 18.69734,0 33.856,15.156 33.856,33.856 -0.97333,13.30667 -14.65866,49.98013 -31.17866,49.14787 -10.272,-0.51614 -16.8548,-26.6308 -21.5944,-36.9828 -7.95827,-17.388 -18.4172,-34.0224 6.67973,-43.7424 4.704,-1.824 7.33467,-1.92134 12.23733,-2.27867 z m 112.51733,57.632 c 3.18534,-5.77347 5.44267,-10.94693 1.85067,-17.3136 -13.64267,-24.18373 -63.98266,1.36667 -49.43333,29.4376 10.82133,20.876 38,0.088 47.58266,-12.124 z m 11.08,11.312 -3.41466,7.3864 c -9.02,32.5896 48.92266,46.69373 59.264,11.1084 8.56399,-29.46933 -34.548,-43.08813 -55.84934,-18.4948 z m 88.66267,-46.80933 -8.23067,1.32906 -3.188,1.73654 c -12.02133,8.08906 -27.82933,57.1224 11.488,45.63426 11.7,-3.4172 40.008,-12.21973 29.20267,-28.76666 -7.20934,-11.03427 -15.93067,-18.66147 -29.272,-19.9332 z m 68.1,81.76506 c 11.95866,-14.45053 -2.40667,-30.57453 -16.52267,-26.65573 -23.904,6.6348 -5.22933,43.9624 16.52267,26.65573 z M 269.77733,739.68267 c -1.69334,17.88387 -43.764,0.30533 -25.89334,-11.40533 8.83467,-5.788 24.02667,0.08 25.89334,11.40533 z m 63.32533,6.64947 c -3.492,31.84226 -30.012,25.19946 -28.60933,-6.9988 0.94933,-21.776 27.772,-19.05867 28.60933,6.9988 z m 100.44266,4.50106 c 1.212,24.77867 -30.47333,4.92654 -27.44666,-6.7796 2.82666,-10.94826 23.90266,-16.39226 27.44666,6.7796 z m 13.192,64.51093 c -4.036,7.57187 -11.28,22.41467 -0.644,28.18747 18.672,10.13653 47.77067,-22.9968 35.88267,-43.1848 -12.02267,-20.42133 -28.64,3.84107 -35.23867,14.99733 z m 88.196,-63.13746 c -5.55733,10.3984 -25.06933,22.36507 -36.26133,27.66773 -32.32133,15.31347 -45.43333,-35.0584 -15.74667,-48.95706 13.37733,-6.26267 31.588,-1.824 43.572,5.936 6.52,4.22266 9.53733,7.71066 8.436,15.35333 z m 1.144,65.53066 c 0.36533,-3.64946 0.65867,-6.7296 0.56,-10.42026 -0.39067,-14.22653 -8.632,-24.8916 -20.70267,-13.2984 -24.65466,23.67186 13.10267,65.66146 20.14267,23.71866 z m 30.704,-69.79999 c -3.10667,6.92666 -5.28667,13.67613 -6.64133,21.15053 -6.188,34.14533 20.64133,50.66826 42.39866,31.44693 44.24133,-39.08693 -13.75866,-96.97613 -35.75733,-52.59746 z m 40.63333,74.19586 c -5.288,1.1308 -9.10266,1.86667 -14.52533,2.46413 -51.68267,5.6932 -3.90667,43.07183 15.61866,34.81347 11.22,-4.7468 27.60134,-43.1604 -1.09333,-37.2776 z m 47.32,-47.70253 -4.85333,-0.80427 c -14.93334,-0.87853 -44.404,30.99387 -1.33467,26.05894 20.768,-2.37867 24.888,-16.44534 6.188,-25.25467 z m 37.79467,-22.088 c 2.06666,30.91867 -40.74534,8.5452 -40.14,-6.87613 0.64933,-16.57587 32.85733,-28.31187 40.14,6.87613 z m 28.63733,44.4708 c 1.61733,-21.1188 -18,-26.7828 -22.51333,-9.7428 -6.292,23.74533 16.66266,34.26146 22.51333,9.7428 z m 29.02933,-65.36013 c -18.056,1.42933 -32.97466,12.46373 -30.74133,32.044 l 1.27867,7.97706 c 6.996,33.31614 19.42266,21.98534 39.60666,13.09107 l 7.49333,-2.79893 c 11.37067,-4.24627 36.41334,-23.1588 23.79867,-36.1292 -4.86133,-4.99467 -34.136,-13.168 -41.436,-14.184 z M 811.26265,718.3 c -8.06267,1.95467 -16.29867,5.97867 -6.868,14.11867 23.436,20.224 29.56666,-14.44267 6.868,-14.11867 z m 53.35066,25.8624 1.96134,-3.2424 c 2.87999,-5.81733 -0.76934,-13.60666 -7.20134,-14.93333 -17.96933,-3.70533 -12.928,33.4492 5.24,18.17573 z m -68.36533,33.04947 c 14.38667,-0.5932 21.96667,21.05467 19.90667,32.9812 -4.57867,26.5084 -52.432,10.01093 -33.06134,-21.8932 3.72934,-6.14533 6.792,-8.3172 13.15467,-11.088 z M 73.198398,877.24 H 20.618799 c -0.521866,-2.17448 -0.799466,-4.44271 -0.799466,-6.77604 1.435866,-16.60783 7.764533,-19.91983 19.492666,-30.50783 20.664,-18.65626 24.110399,2.69694 29.953599,20.7308 1.858934,5.73171 3.522934,11.38119 3.9328,16.55307 z m 117.940262,0 h -37.656 c -4.85866,-2.30521 -9.46533,-5.03333 -13.38533,-7.75469 -21.27387,-14.76504 5.912,-25.98798 19.14533,-34.12131 14.26534,-8.76827 27.21067,-17.5828 39.30934,1.03333 3.81066,5.86147 4.29599,9.76507 4.87866,16.48387 0,9.98693 -4.836,18.84265 -12.292,24.3588 z m 115.81333,0 h -87.892 l -0.004,-0.26667 c 0.82267,-14.70413 6.68534,-24.94946 14.93867,-36.836 14.86,-21.39733 35.57867,-5.68013 52.93067,5.69747 14.376,9.42493 19.068,13.876 20.02933,31.13853 z m 88.82,0 h -62.06267 c -0.88533,-3.19479 -1.36133,-6.55625 -1.36133,-10.03333 1.19333,-17.54267 13.74267,-37.224 29.07067,-46.30787 18.19066,-10.78533 28.74933,-3.33067 30.90666,16.148 0.788,7.13067 2.98934,26.7224 3.44667,40.1932 z m 87.42666,0 h -56.03866 c -5.44133,-7.85208 -2.68133,-16.21613 16.992,-19.67347 14.90267,-2.61866 47.69733,-6.64786 39.04666,19.67347 z m 84.40267,0 h -63.44 c 2.556,-11.38125 9.80133,-21.43853 20.82267,-26.59067 13.80666,-6.4536 38.472,10.49174 42.25866,23.85316 z m 169.75066,0 h -86.23333 c -1.28533,-2.71459 -2.36267,-5.59896 -3.18533,-8.65052 l -1.29467,-4.80255 c -5.82267,-26.6204 10.70667,-45.1964 39.07067,-38.27093 27.19466,6.90787 62.29199,20.5948 51.64266,51.724 z m 85.80933,0 h -60.92266 c -1.728,-6.26927 -2.592,-13.73747 -2.28934,-22.55627 0.55334,-16.18226 10.67867,-40.01306 27.59067,-21.34533 8.39067,9.26413 14.92667,18.85987 24.404,28.91093 5.33467,5.65994 7.59733,8.01463 11.21733,14.99067 z m 54.08267,-45.02133 c -5.86667,0.42653 -12.32,3.28533 -19.03733,6.2932 -16.144,7.23493 -43.284,15.036 -19.63467,33.03594 2.67733,2.03594 5.19733,3.95626 7.69867,5.69219 h 30.97333 z m 0,-61.63227 v 45.01613 c -0.20934,0.2296 -0.41867,0.45627 -0.63467,0.6844 -11.804,12.52654 -40.51066,28.08907 -46.26933,1.20094 -1.076,-5.02654 -1.104,-8.92813 -1.25867,-13.9948 -0.064,-25.44787 8.50934,-59.54787 40.61333,-38.53947 2.816,1.84214 5.33467,3.71974 7.54934,5.6328 z M 41.956266,728.19467 c 16.395866,1.56133 20.863466,8.27067 29.110932,21.69747 9.093733,14.8 -4.379733,20.0812 -16.733333,25.80613 -14.443199,6.69387 -27.725066,9.69747 -36.672399,-7.58893 -2.463066,-4.75894 -2.562533,-7.42667 -3.052133,-12.56667 0,-15.104 12.243333,-27.348 27.346933,-27.348 v 0"
           style="fill:#bc4c1f;fill-opacity:1;fill-rule:evenodd;stroke:none;stroke-width:0.13333333"
           id="path192" /><path
           inkscape:connector-curvature="0"
           d="m 46.504666,870.25459 5.447999,-0.7974 c 0.8776,-0.3026 1.971334,-0.725 2.6328,-1.15052 0.302534,-3.14011 -2.381866,-11.46827 -3.192266,-13.96827 -0.730134,-2.25573 -2.094267,-7.24107 -3.528134,-11.58387 -3.300533,2.8204 -7.818666,6.50947 -9.828133,9.3412 -1.3776,1.94267 -1.8396,4.84534 -2.0812,7.2692 0.3052,5.7683 4.830667,10.40684 10.548934,10.88966 z M 104.8156,795.2416 c 0.0708,-0.1068 0.12973,-0.21 0.1672,-0.30053 -0.0927,-0.1932 -0.29587,-0.39587 -0.52494,-0.524 0.0932,0.29747 0.214,0.58547 0.34734,0.82813 0.003,-0.003 0.007,-0.003 0.0104,-0.004 z m 55.78973,-52.07893 c -0.34,-8.616 -7.3,-15.51867 -15.93867,-15.768 -2.32933,0.14667 -4.14533,0.20933 -6.42933,1.09467 -1.00933,0.39066 -3.336,1.38133 -4.592,2.28933 0.61467,4.116 6.02667,14.828 7.46,17.96133 1.884,4.112 5.44267,14.89067 8.71067,22.2812 5.11333,-7.83066 10.08666,-21.95306 10.78933,-27.85853 z m 24.09067,98.556 c -0.228,-2.98027 -0.304,-4.85894 -2.052,-7.54694 -0.44134,-0.67866 -1.44934,-2.13333 -2.28,-2.93333 -3.29334,0.86827 -11.01067,5.84173 -13.3,7.248 -2.42534,1.49213 -8.74134,4.85627 -13.68267,7.94427 5.85867,3.46813 13.16667,6.81973 19.18133,7.56813 6.59067,-0.3588 11.85334,-5.66973 12.13334,-12.28013 z m 57.29866,-83.69587 c -4.996,-0.98693 -20.18667,5.91987 -17.712,12.988 5.32267,-1.30146 13.976,-8.83906 17.712,-12.988 z m 46.236,107.67969 c -0.65867,-10.55462 -2.94,-10.97449 -12.15867,-17.01716 -3.00933,-1.976 -5.99066,-3.9932 -9.024,-5.9308 -3.248,-2.07186 -12.776,-8.00146 -16.772,-7.50773 -1.12133,0.13693 -2.73466,2.3344 -3.27333,3.10933 -6.09467,8.776 -11.07867,16.536 -11.82133,27.36772 0.072,4.13855 1.09333,8.04531 2.85066,11.51615 h 47.34667 c 1.76133,-3.47448 2.78267,-7.38959 2.852,-11.53751 z m -5.83867,-76.88902 -1.47733,3.2 c -0.16667,1.03693 -0.10533,2.05307 0.45333,3.03173 2.13334,3.74174 8.42534,5.59747 12.42134,5.78027 6.23066,0.2864 11.27333,-1.96147 13.10933,-8.28133 0.44,-1.51094 0.74267,-3.30254 -0.17333,-4.7 -1.936,-2.95467 -7.1,-4.1604 -10.36534,-4.25107 -5.236,-0.14267 -10.196,1.69907 -13.968,5.2204 z m 74.25867,-39.09747 -2.06267,0.33334 c -2.25067,3.0308 -4.98667,9.936 -5.61867,14.69746 1.052,-0.22293 2.052,-0.4896 2.65867,-0.66666 3.3,-0.96307 11.77067,-3.58707 16.824,-6.312 -3.09067,-3.97347 -6.672,-7.036 -11.80133,-8.05214 z m 11.284,125.78129 c 2.37733,-0.19584 7.804,-0.79322 8.99466,-1.94792 0.0427,-0.0562 0.0813,-0.13749 0.11867,-0.22968 0.66133,-5.42761 -0.41867,-15.81036 -0.85733,-21.16516 -0.68134,-8.31866 -1.56267,-16.61453 -2.48,-24.90773 -0.12134,-1.07613 -0.44267,-3.25733 -0.93867,-4.99227 -1.42267,0.58654 -2.98533,1.44374 -3.76933,1.91094 -10.07867,5.97186 -19.44,20.06093 -20.52534,31.9 0.30134,10.61046 8.84534,19.14536 19.45734,19.43182 z m 89.16266,-11.17084 c 3.20934,0.063 6.13334,-0.21978 7.67734,-2.92138 -4.108,-0.28227 -9.86267,0.2896 -14.20134,0.8776 2.36534,0.9292 4.69734,1.64378 6.524,2.04378 z m 55.708,-126.24778 c -6.92133,-3.54933 -17.192,-6.19333 -23.79733,-3.10133 -4.05334,1.896 -6.18267,5.4 -6.524,9.8096 -0.184,2.3796 0.428,7.10253 2.57466,8.6224 0.976,0.68946 4.048,-0.61467 4.856,-0.99854 4.744,-2.2468 15.91467,-8.61346 22.89067,-14.33213 z m 36.82,134.28269 -0.70533,-5.38543 c -2.40267,-4.5854 -13.42934,-12.35566 -18.28934,-12.0562 -6.57866,3.27854 -10.452,9.9911 -11.23333,17.17079 0.0787,1.81771 0.47467,3.55208 1.13867,5.14948 h 27.96533 c 0.62933,-1.51875 1.02,-3.15989 1.124,-4.87864 z m 31.60267,-128.67869 c -2.41734,5.44947 -4.18,10.9104 -5.24667,16.79173 -1.912,10.552 1.016,26.51094 13.72133,15.28534 7.78934,-6.88374 12.78667,-16.1276 9.092,-26.50774 -1.49866,-4.212 -6.63733,-11.70133 -11.74133,-11.62 -2.43867,0.04 -4.82267,4.088 -5.82533,6.05067 z m 13.67066,86.34893 c 1.82934,0.77347 3.59867,1.3084 4.97734,1.4272 0.52133,-0.65627 1.07599,-1.4896 1.61733,-2.41467 -2.17867,0.37867 -4.364,0.712 -6.59467,0.98747 z m 67.37733,17.93653 1.176,4.36667 c 3.52534,13.07447 15.64134,23.34895 28.81467,24.9052 h 6.86267 c 1.92533,-0.23594 3.84666,-0.67448 5.73733,-1.33333 5.37733,-1.8776 9.41067,-5.44531 12.15467,-10.41875 2.21066,-3.99845 4.912,-10.01459 2.768,-14.58912 -4.912,-10.49213 -28.98267,-17.5536 -39.596,-20.20053 -14.67067,-3.6556 -20.964,2.74853 -17.91734,17.26986 z M 748.30265,737.304 c -7.112,0.93734 -13.632,4.008 -12.87067,12.18134 l 1.13067,7.0812 c 0.348,1.61093 1.00266,4.4188 1.77866,6.8068 4.58934,-1.92814 11.01734,-5.3 13.67067,-6.46934 l 0.46,-0.20253 7.964,-2.97507 c 2.93467,-1.0932 9.23067,-5.20773 13.08267,-9.01186 -7.556,-2.8572 -19.41334,-6.24654 -25.216,-7.41054 z m 96.89733,54.19747 c 0.10533,3.57453 0.12267,7.10627 0.872,10.61973 0.052,0.23334 0.12667,0.55214 0.216,0.89227 5.19467,-1.05987 13.58133,-7.46413 16.34267,-10.39227 2.38533,-2.53333 8.02666,-9.11186 7.47999,-13.076 -0.584,-4.224 -8.09066,-9.664 -11.25466,-11.73586 -1.44667,-0.94534 -5.728,-3.4772 -7.89333,-3.68654 -2.94667,2.87707 -4.828,13.84894 -5.22,17.37454 -0.37067,3.31453 -0.54267,6.66813 -0.54267,10.00413 z m -49.04533,-4.97507 c -0.94534,1.7068 -2.22667,4.5256 -1.064,5.9084 0.52,0.6156 1.62266,1.29734 2.676,1.63587 -0.0533,-2.0812 -0.67067,-5.06133 -1.612,-7.54427 z m 8.84666,84.51776 c -1.97066,-3.26667 -3.79733,-5.13072 -7.032,-8.56149 -7.55866,-8.01454 -13.976,-16.7776 -21.04266,-25.0656 -0.51734,2.34693 -0.81734,4.68026 -0.86667,6.14426 -1.424,41.5094 26.43867,32.9094 28.94133,27.48283 z m 72.24267,-32.08696 c -0.20534,-0.36507 -0.42534,-0.72653 -0.64134,-1.0344 -3.23733,0.48387 -10.33466,3.76667 -12.57333,4.76773 -2.408,1.08014 -8.23866,3.3692 -13.144,5.624 5.272,4.03227 10.588,7.7828 17.364,8.61347 3.77067,-0.22027 7.05067,-2.24427 8.99467,-5.22547 z M 39.979732,733.91867 c -5.0016,0.336 -8.981333,4.368 -9.237066,9.392 0.128133,1.8148 0.202667,3.35587 1.090133,5.07053 0.4,0.77334 1.586933,2.85467 2.4,3.45467 2.386533,0.3776 9.466133,-2.7308 11.476,-3.66253 1.5448,-0.7136 4.880266,-2.14534 7.593866,-3.54534 -1.901066,-3.10533 -4.428133,-7.01866 -6.524533,-8.64666 -1.678666,-1.30267 -4.553066,-1.80534 -6.7984,-2.06267 v 0"
           style="fill:#d96934;fill-opacity:1;fill-rule:evenodd;stroke:none;stroke-width:0.13333333"
           id="path194" /><path
           inkscape:connector-curvature="0"
           d="M 0,696.29334 H 877.24398 V 638.99467 H 0 v 57.29867"
           style="fill:#87b027;fill-opacity:1;fill-rule:evenodd;stroke:none;stroke-width:0.13333333"
           id="path196" /><path
           inkscape:connector-curvature="0"
           d="M 0,714.524 H 877.24398 V 696.29334 H 0 V 714.524"
           style="fill:#7e2b1a;fill-opacity:1;fill-rule:evenodd;stroke:none;stroke-width:0.13333333"
           id="path198" /><path
           inkscape:connector-curvature="0"
           d="m 0,696.29334 h 877.24398 v -15.14 H 0 v 15.14"
           style="fill:#769a2a;fill-opacity:1;fill-rule:evenodd;stroke:none;stroke-width:0.13333333"
           id="path200" /><path
           inkscape:connector-curvature="0"
           d="m 514.18265,292.75601 c 46.98,0 85.29467,-38.31599 85.29467,-85.29466 0,-46.97867 -38.31467,-85.29466 -85.29467,-85.29466 -46.97733,0 -85.29333,38.31599 -85.29333,85.29466 0,46.97867 38.316,85.29466 85.29333,85.29466"
           style="fill:#ffffff;fill-opacity:1;fill-rule:evenodd;stroke:none;stroke-width:0.13333333"
           id="path202" /><path
           inkscape:connector-curvature="0"
           d="M 130.44266,130.79202 53.936932,-0.00397807 h 5.9068 l 63.760928,80.49333107 6.838,50.302667"
           style="fill:#5c2314;fill-opacity:1;fill-rule:evenodd;stroke:none;stroke-width:0.13333333"
           id="path204" /><path
           inkscape:connector-curvature="0"
           d="M 86.283865,415.97201 0,260.52535 v -26.40933 l 95.934931,135.63199 -9.651066,46.224"
           style="fill:#5c2314;fill-opacity:1;fill-rule:evenodd;stroke:none;stroke-width:0.13333333"
           id="path206" /><path
           inkscape:connector-curvature="0"
           d="M 136.304,159.44002 283.77866,-0.00397807 h 2.932 L 140.86133,186.46135 136.304,159.44002"
           style="fill:#5c2314;fill-opacity:1;fill-rule:evenodd;stroke:none;stroke-width:0.13333333"
           id="path208" /><path
           inkscape:connector-curvature="0"
           d="m 122.63333,318.63601 106.636,-75.93466 -104.0324,95.468 z"
           style="fill:#5c2314;fill-opacity:1;fill-rule:evenodd;stroke:none;stroke-width:0.13333333"
           id="path210" /><path
           inkscape:connector-curvature="0"
           d="m 229.26933,242.70135 -0.50667,-3.66267 -77.96933,49.15867 2.77467,8.41066 75.70133,-53.90666"
           style="fill:#9e391e;fill-opacity:1;fill-rule:evenodd;stroke:none;stroke-width:0.13333333"
           id="path212" /><path
           inkscape:connector-curvature="0"
           d="M 163.45066,117.77069 283.77866,-0.00397807 165.912,127.42935 Z"
           style="fill:#9e391e;fill-opacity:1;fill-rule:evenodd;stroke:none;stroke-width:0.13333333"
           id="path214" /><path
           inkscape:connector-curvature="0"
           d="m 0,231.95735 82.105731,107.27733 -1.1636,9.316 L 0,234.11602 v -2.15867"
           style="fill:#9e391e;fill-opacity:1;fill-rule:evenodd;stroke:none;stroke-width:0.13333333"
           id="path216" /><path
           inkscape:connector-curvature="0"
           d="M 59.843732,-0.00397807 116.68693,62.501354 115.68746,70.494687 Z"
           style="fill:#9e391e;fill-opacity:1;fill-rule:evenodd;stroke:none;stroke-width:0.13333333"
           id="path218" /><path
           inkscape:connector-curvature="0"
           d="M 750.10798,130.79202 650.40265,-0.00397807 h 5.90667 l 78.03733,80.49333107 15.76133,50.302667"
           style="fill:#5c2314;fill-opacity:1;fill-rule:evenodd;stroke:none;stroke-width:0.13333333"
           id="path220" /><path
           inkscape:connector-curvature="0"
           d="m 656.30932,-0.00397807 67.92933,62.50533207 0.41733,7.993333 z"
           style="fill:#9e391e;fill-opacity:1;fill-rule:evenodd;stroke:none;stroke-width:0.13333333"
           id="path222" /><path
           inkscape:connector-curvature="0"
           d="m 0,288.70535 v -79.56267 c 33.119733,3.26934 58.321332,19.83467 58.321332,39.78134 0,19.948 -25.201599,36.51333 -58.321332,39.78133 z M 20.684933,-0.00397807 H 354.20932 c 0.236,0.81866665 0.364,1.64533327 0.364,2.48266657 0,5.9519999 -6.12133,11.4733335 -16.57333,16.0306665 31.41467,2.04 55.64,15.073333 55.64,30.850666 0,17.191999 -28.76133,31.129332 -64.24533,31.129332 -35.48133,0 -64.24533,-13.937333 -64.24533,-31.129332 0,-7.2 5.04666,-13.829333 13.51733,-19.102666 -5.98267,0.355999 -12.16933,0.545333 -18.50267,0.545333 -33.88666,0 -63.59866,-5.357333 -80.25199,-13.401333 -9.83334,3.148 -21.084,4.936 -33.04,4.936 -18.55227,0 -35.4084,-4.305334 -47.893336,-11.32 -8.786,4.237333 -19.847999,6.762666 -31.867199,6.762666 -20.360933,0 -37.975066,-7.246666 -46.426532,-17.78399907 z M 250.72266,209.20535 c 32.904,0 59.57733,13.11867 59.57733,29.3 0,16.18267 -26.67333,29.3 -59.57733,29.3 -32.90267,0 -59.576,-13.11733 -59.576,-29.3 0,-16.18133 26.67333,-29.3 59.576,-29.3 v 0"
           style="fill:#87b027;fill-opacity:1;fill-rule:evenodd;stroke:none;stroke-width:0.13333333"
           id="path224" /><path
           inkscape:connector-curvature="0"
           d="m 729.38532,265.20268 c 11.98133,0 23.00533,2.27467 31.75999,6.092 11.55734,-6.648 27.61067,-10.76933 45.35867,-10.76933 35.20533,0 63.74533,16.20667 63.74533,36.196 0,16.40133 -19.21466,30.25333 -45.55733,34.69866 1.46933,2.54134 2.25867,5.228 2.25867,8.00934 0,15.82133 -25.50667,28.64933 -56.97067,28.64933 -31.46533,0 -56.97333,-12.828 -56.97333,-28.64933 0,-6.376 4.14533,-12.26267 11.148,-17.02134 -26.00667,-1.46 -46.308,-13.676 -46.308,-28.52933 0,-15.83733 23.076,-28.676 51.53867,-28.676 z M 877.24398,120.62669 c -6.568,0.868 -13.50133,1.332 -20.66667,1.332 -41.71333,0 -75.52933,-15.74134 -75.52933,-35.15867 0,-8.793333 6.932,-16.829333 18.39067,-22.994666 -23.23867,-5.489334 -39.22534,-16.938667 -39.22534,-30.173333 0,-0.32 0.012,-0.637333 0.0293,-0.953333 -7.21067,1.313333 -15.00667,2.032 -23.14267,2.032 -15.096,0 -29.01866,-2.470667 -40.19866,-6.634667 -9.23334,8.818667 -27.824,14.870667 -49.312,14.978667 14.5,4.830666 24.072,13.139999 24.072,22.583999 0,14.922666 -23.904,27.019999 -53.38934,27.019999 -29.48799,0 -53.39066,-12.097333 -53.39066,-27.019999 0,-0.301333 0.012,-0.6 0.032,-0.898667 -11.87733,-4.690666 -19.56533,-12.166666 -19.56533,-20.587999 0,-13.688 20.30533,-24.877333 45.91733,-25.672 -0.22133,-0.997333 -0.34,-2.009333 -0.34,-3.035999 0,-5.722667 3.53733,-11.0400002 9.592,-15.44800007 h 276.7267 V 120.62669 v 0"
           style="fill:#87b027;fill-opacity:1;fill-rule:evenodd;stroke:none;stroke-width:0.13333333"
           id="path226" /><path
           inkscape:connector-curvature="0"
           d="m 804.16265,11.922688 c 17.97866,0 32.556,9.181333 32.556,20.509333 0,11.328 -14.57734,20.510666 -32.556,20.510666 -17.98,0 -32.55467,-9.182666 -32.55467,-20.510666 0,-11.328 14.57467,-20.509333 32.55467,-20.509333 z m 26.53066,62.831999 c 11.23867,0 20.348,4.664 20.348,10.417333 0,5.753333 -9.10933,10.417333 -20.348,10.417333 -11.23733,0 -20.34666,-4.664 -20.34666,-10.417333 0,-5.753333 9.10933,-10.417333 20.34666,-10.417333 z M 622.85332,48.309354 c 7.72266,2.304 12.996,6.94 12.996,12.284 0,7.64 -10.78534,13.834666 -24.08934,13.834666 -13.30399,0 -24.09066,-6.194666 -24.09066,-13.834666 0,-2.702667 1.35067,-5.224 3.68133,-7.353333 -17.52933,-0.389334 -31.352,-4.818667 -31.352,-10.226667 0,-5.664 15.15867,-10.254666 33.856,-10.254666 18.69867,0 33.85733,4.590666 33.85733,10.254666 0,1.937333 -1.77466,3.749333 -4.85866,5.296 z m 25.124,-38.014666 c 10.29466,0 18.63866,3.06 18.63866,6.836 0,3.776 -8.344,6.836 -18.63866,6.836 -10.292,0 -18.63867,-3.06 -18.63867,-6.836 0,-3.776 8.34667,-6.836 18.63867,-6.836 z M 813.44265,283.10801 c 9.79733,0 17.74,4.008 17.74,8.952 0,4.94534 -7.94267,8.95334 -17.74,8.95334 -9.80134,0 -17.74267,-4.008 -17.74267,-8.95334 0,-4.944 7.94133,-8.952 17.74267,-8.952 z m -41.932,36.388 c 16.056,0 29.06933,6.79467 29.06933,15.17467 0,8.38133 -13.01333,15.176 -29.06933,15.176 -16.05467,0 -29.06934,-6.79467 -29.06934,-15.176 0,-8.38 13.01467,-15.17467 29.06934,-15.17467 z m -35.87734,-45.17733 c 14.65334,0 26.53334,4.88267 26.53334,10.90533 0,6.024 -11.88,10.908 -26.53334,10.908 -14.65466,0 -26.53199,-4.884 -26.53199,-10.908 0,-6.02266 11.87733,-10.90533 26.53199,-10.90533 z m -455.93865,-52.088 c 12.40667,0 22.46267,5.61067 22.46267,12.53334 0,6.92266 -10.056,12.53466 -22.46267,12.53466 -12.40533,0 -22.46267,-5.612 -22.46267,-12.53466 0,-6.92267 10.05734,-12.53334 22.46267,-12.53334 z M 256.41733,7.5280217 c 12.316,0 22.3,3.6440003 22.3,8.1386663 0,4.494667 -9.984,8.138667 -22.3,8.138667 -12.316,0 -22.3,-3.644 -22.3,-8.138667 0,-4.494666 9.984,-8.1386663 22.3,-8.1386663 z m 65.84266,23.2759993 c 16.94667,0 30.684,6.56 30.684,14.650666 0,8.090667 -13.73733,14.649333 -30.684,14.649333 -16.94533,0 -30.68266,-6.558666 -30.68266,-14.649333 0,-8.090666 13.73733,-14.650666 30.68266,-14.650666 v 0"
           style="fill:#9ac421;fill-opacity:1;fill-rule:evenodd;stroke:none;stroke-width:0.13333333"
           id="path228" /></g><path
         style="opacity:1;fill:#2b1109;fill-opacity:1;fill-rule:nonzero;stroke:none;stroke-width:2;stroke-miterlimit:4;stroke-dasharray:none;stroke-opacity:1;filter:url(#filter1195)"
         d="M 139.524,391.93655 A 21.794535,22.188551 0 0 1 117.72947,414.1251 21.794535,22.188551 0 0 1 95.934935,391.93655 21.794535,22.188551 0 0 1 117.72947,369.748 21.794535,22.188551 0 0 1 139.524,391.93655 Z"
         id="path947"
         inkscape:connector-curvature="0" /></g></g></svg>