<?xml version="1.0" encoding="UTF-8" standalone="no"?>
<svg
   xmlns:dc="http://purl.org/dc/elements/1.1/"
   xmlns:cc="http://creativecommons.org/ns#"
   xmlns:rdf="http://www.w3.org/1999/02/22-rdf-syntax-ns#"
   xmlns:svg="http://www.w3.org/2000/svg"
   xmlns="http://www.w3.org/2000/svg"
   xmlns:sodipodi="http://sodipodi.sourceforge.net/DTD/sodipodi-0.dtd"
   xmlns:inkscape="http://www.inkscape.org/namespaces/inkscape"
   version="1.1"
   id="Layer_1"
   x="0px"
   y="0px"
   viewBox="0 0 249.96188 457.74865"
   enable-background="new 0 0 768.304 543.2496"
   xml:space="preserve"
   sodipodi:docname="owl.svg"
   inkscape:version="0.92.4 (5da689c313, 2019-01-14)"><metadata
   id="metadata575"><rdf:RDF><cc:Work
       rdf:about=""><dc:format>image/svg+xml</dc:format><dc:type
         rdf:resource="http://purl.org/dc/dcmitype/StillImage" /><dc:title></dc:title></cc:Work></rdf:RDF></metadata><defs
   id="defs573">
	
	
	
	
	
	
	
	
	
	
	
	
	
	
	
	
	
	
	
	
</defs><sodipodi:namedview
   pagecolor="#ffffff"
   bordercolor="#666666"
   borderopacity="1"
   objecttolerance="10"
   gridtolerance="10"
   guidetolerance="10"
   inkscape:pageopacity="0"
   inkscape:pageshadow="2"
   inkscape:window-width="1920"
   inkscape:window-height="1017"
   id="namedview571"
   showgrid="false"
   fit-margin-top="0"
   fit-margin-left="0"
   fit-margin-right="0"
   fit-margin-bottom="0"
   inkscape:zoom="0.3956767"
   inkscape:cx="-762.06235"
   inkscape:cy="202.52007"
   inkscape:window-x="-8"
   inkscape:window-y="-8"
   inkscape:window-maximized="1"
   inkscape:current-layer="Layer_1" />
<g
   id="g566"
   transform="translate(-137.81534,-16.396254)">
		<path
   style="fill:#231f20"
   inkscape:connector-curvature="0"
   id="path472"
   d="m 317.6135,447.0824 c 0,0 7.4238,-11.127 5.5546,-14.5391 -1.4453,-2.6445 -12.4824,-5.3828 -11.8007,-2.4472 1.0136,4.373 6.2461,16.9863 6.2461,16.9863 z" />
		<path
   style="fill:#231f20"
   inkscape:connector-curvature="0"
   id="path474"
   d="m 346.8224,456.2074 c 0,0 7.4239,-11.125 5.5567,-14.5391 -1.4473,-2.6445 -12.4824,-5.3828 -11.8028,-2.4472 1.0157,4.373 6.2461,16.9863 6.2461,16.9863 z" />
		<path
   style="fill:#231f20"
   inkscape:connector-curvature="0"
   id="path476"
   d="m 355.7248,442.4925 c 0,0 7.4238,-11.1269 5.5547,-14.539 -1.4453,-2.6446 -12.4825,-5.3828 -11.8008,-2.4473 1.0137,4.3731 6.2461,16.9863 6.2461,16.9863 z" />
		<path
   style="fill:#231f20"
   inkscape:connector-curvature="0"
   id="path478"
   d="m 229.8537,464.2151 c 0,0 9.7461,-9.1602 8.6992,-12.9082 -0.8125,-2.9024 -10.9434,-8.0645 -10.9434,-5.0508 0,4.4903 2.2442,17.959 2.2442,17.959 z" />
		<path
   style="fill:#231f20"
   inkscape:connector-curvature="0"
   id="path480"
   d="m 294.4377,451.6175 c 0,0 7.4238,-11.125 5.5547,-14.539 -1.4454,-2.6446 -12.4825,-5.3828 -11.8018,-2.4473 1.0146,4.3731 6.2471,16.9863 6.2471,16.9863 z" />
		<path
   style="fill:#231f20"
   inkscape:connector-curvature="0"
   id="path482"
   d="m 272.7404,474.1449 c 0,0 7.4238,-11.127 5.5566,-14.5391 -1.4472,-2.6445 -12.4834,-5.3828 -11.8027,-2.4472 1.0156,4.373 6.2461,16.9863 6.2461,16.9863 z" />
		<path
   style="fill:#ce8c2a"
   inkscape:connector-curvature="0"
   id="path484"
   d="m 191.6794,151.1942 c 0,0 -66.8369,79.3354 -46.6773,183.4761 2.9029,14.9941 -5.4345,19.9922 27.1323,98.6953 3.7808,9.1367 23.191,40.7793 23.191,40.7793 0,0 79.4716,-58.9082 97.0341,-78.7168 146.1934,-164.8985 80.8692,-251.6123 80.8692,-251.6123 0,0 8.146,-127.3106 -95.1602,-127.4195 -86.2905,-0.0908 -86.3891,134.7979 -86.3891,134.7979 z" />
		<path
   style="fill:#ce8c2a"
   inkscape:connector-curvature="0"
   id="path486"
   d="m 218.1945,199.4608 c -39.8892,82.8384 -8.1435,258.1509 -19.583,245.2017 -119.7368,-135.5235 -29.147,-258.9097 -9.0352,-290.815 0,0 33.2227,36.0508 28.6182,45.6133 z" />
		<path
   style="fill:#e6b023"
   inkscape:connector-curvature="0"
   id="path488"
   d="m 175.1589,202.5409 c -11.42,5.9863 -17.1495,23.6553 -12.5923,35.4277 3.5844,-10.0488 9.0835,-21.9765 11.3369,-32.3486" />
		<path
   style="fill:#e6b023"
   inkscape:connector-curvature="0"
   id="path490"
   d="m 160.9982,240.6473 c -10.8345,6.9907 -14.9497,25.1035 -9.3506,36.4185 2.6651,-10.3306 7.0674,-22.7056 8.377,-33.2388" />
		<path
   style="fill:#e6b023"
   inkscape:connector-curvature="0"
   id="path492"
   d="m 150.7087,280.8089 c -9.1109,9.125 -9.3003,27.6993 -1.4346,37.5723 0.4189,-10.6601 2.104,-23.6855 1.1558,-34.2578" />
		<path
   style="fill:#e6b023"
   inkscape:connector-curvature="0"
   id="path494"
   d="m 150.443,322.1136 c -6.7207,11.0039 -2.5546,29.1075 7.4043,36.8633 -2.0893,-10.4629 -3.5014,-23.5215 -6.8994,-33.5762" />
		<path
   style="fill:#e6b023"
   inkscape:connector-curvature="0"
   id="path496"
   d="m 158.7175,362.6389 c -5.4747,11.6758 0.6489,29.2129 11.3979,35.8301 -3.2231,-10.1699 -6.0571,-22.9941 -10.5356,-32.6172" />
		<path
   style="fill:#e6b023"
   inkscape:connector-curvature="0"
   id="path498"
   d="m 173.5456,401.2328 c -5.4746,11.6738 0.6489,29.2129 11.3979,35.8301 -3.2231,-10.1719 -6.0571,-22.9961 -10.5356,-32.6192" />
		<path
   style="fill:#e6b023"
   inkscape:connector-curvature="0"
   id="path500"
   d="m 187.4533,438.6546 c -4.9273,10.5079 0.584,26.293 10.2578,32.2481 -2.9009,-9.1543 -5.4512,-20.6953 -9.4819,-29.3574" />
		<path
   style="fill:#e6b023"
   inkscape:connector-curvature="0"
   id="path502"
   d="m 194.3737,167.3895 c -12.3076,3.8447 -21.1084,20.2017 -18.7329,32.6006 5.3262,-9.2451 12.8721,-19.9951 16.9463,-29.7964" />
		<path
   style="fill:#e6b023"
   inkscape:connector-curvature="0"
   id="path504"
   d="m 207.2717,177.3148 c -12.3077,3.8447 -21.1084,20.2017 -18.733,32.6006 5.3262,-9.2451 12.8721,-19.9951 16.9458,-29.7964" />
		<path
   style="fill:#e6b023"
   inkscape:connector-curvature="0"
   id="path506"
   d="m 213.4943,193.6151 c -12.3071,3.8447 -21.1079,20.2017 -18.7324,32.6006 5.3262,-9.2451 12.8721,-19.9951 16.9463,-29.7964" />
		<path
   style="fill:#e6b023"
   inkscape:connector-curvature="0"
   id="path508"
   d="m 186.7301,215.8773 c -11.1044,6.5532 -15.9379,24.4873 -10.7944,36.0166 3.0747,-10.2168 7.9668,-22.4058 9.6953,-32.8784" />
		<path
   style="fill:#e6b023"
   inkscape:connector-curvature="0"
   id="path510"
   d="m 194.5763,233.8856 c -11.1045,6.5532 -15.9379,24.4873 -10.7944,36.0176 3.0747,-10.2178 7.9668,-22.4068 9.6953,-32.8794" />
		<path
   style="fill:#e6b023"
   inkscape:connector-curvature="0"
   id="path512"
   d="m 174.5046,255.2645 c -11.1045,6.5527 -15.938,24.4878 -10.7945,36.0171 3.0747,-10.2168 7.9668,-22.4058 9.6953,-32.8784" />
		<path
   style="fill:#e6b023"
   inkscape:connector-curvature="0"
   id="path514"
   d="m 164.985,296.3168 c -8.9819,9.25 -8.9121,27.8242 -0.9087,37.5878 0.2701,-10.666 1.773,-23.7128 0.6768,-34.2714" />
		<path
   style="fill:#e6b023"
   inkscape:connector-curvature="0"
   id="path516"
   d="m 180.6633,272.8216 c -9.9424,8.21 -11.9092,26.6807 -5.0245,37.2627 1.4375,-10.5722 4.3623,-23.3769 4.4302,-33.9892" />
		<path
   style="fill:#e6b023"
   inkscape:connector-curvature="0"
   id="path518"
   d="m 180.6633,315.2738 c -9.9424,8.2109 -11.9092,26.6797 -5.0245,37.2637 1.4375,-10.5723 4.3623,-23.377 4.4302,-33.9922" />
		<path
   style="fill:#e6b023"
   inkscape:connector-curvature="0"
   id="path520"
   d="m 166.9997,340.2289 c -6.6299,11.0586 -2.3169,29.125 7.7065,36.8007 -2.1748,-10.4453 -3.6938,-23.4902 -7.1743,-33.5195" />
		<path
   style="opacity:0.3;fill:#b86e29"
   inkscape:connector-curvature="0"
   id="path522"
   d="m 194.5275,330.8207 c -25.3335,18.6757 5.145,140.082 5.145,140.082 0,0 69.5855,-52.3731 92.687,-75.4746 18.3614,-18.3633 -76.9287,-80.0195 -97.832,-64.6074 z" />
		<path
   style="fill:#fffaca"
   inkscape:connector-curvature="0"
   id="path524"
   d="m 274.217,383.8539 c 0,0 -4.1368,9.0507 -6.7344,10.9414 -4.1963,3.0547 -17.9902,4.3886 -20.7637,0 -16.5625,-26.209 -48.2397,-43.7168 -52.1914,-63.9746 -6.5508,-33.584 14.4512,-106.5855 24.0156,-134.7427 4.1172,-12.1221 -28.9487,-38.5557 -28.9668,-42.2305 -0.1093,-22.2388 11.5884,-65.6767 11.5884,-65.6767 l 5.4409,7.3559 c 0,0 -6.0239,86.5327 75.3682,89.8198 63.499,2.5645 72.8252,-84.663 72.8252,-84.663 l 12.0645,-12.5127 c 0,0 8.8027,29.2978 6.3652,55.645 -4.916,53.1435 33.9258,56.1562 -45.959,208.4756 -3.3516,6.3925 -12.1211,21.1406 -4.7891,28.4726 4.4063,4.4082 -14.6445,7.9531 -19.8652,11.3535 -2.0137,1.3125 -10.2559,3.3106 -10.2559,3.3106 0,0 -7.5078,-0.959 -9.6406,-2.209 -2.7304,-1.5977 -8.5019,-9.3652 -8.5019,-9.3652 z" />
		<path
   style="opacity:0.2;fill:#b86e29"
   inkscape:connector-curvature="0"
   id="path526"
   d="m 290.4963,297.5199 c 1.2246,6.832 -6.4131,14.5508 -11.3965,18.1953 -3.6211,2.6465 -3.0147,2.8633 -1.586,6.8711 1.0567,2.9648 0.9151,6.5664 1.25,9.7969 0.4258,4.1015 0.2422,7.2539 -1.4238,10.955 -1.4629,3.2461 -4.2129,6.8008 -4.9443,10.1661 -0.7158,3.2949 0.8203,7.1347 0.0244,10.3984 -0.9063,3.7109 -3.1924,7.3828 -3.8047,11.4648 -0.5742,3.8223 -0.0488,7.5508 -1.249,11.3399 -0.7715,2.4336 -4.4541,7.8555 -5.1397,10.1426 2.2676,-1.1875 4.7578,2.664 11.9356,-13.1524 3.1543,6.2481 9.914,12.2207 18.1972,11.7305 3.6622,-0.2168 1.2911,-2.7676 3.6582,-5.4688 2.0079,-2.2929 -2.8515,-19.9922 -4.455,-21.3984 -2.752,-2.4121 -1.0567,-4.7148 -1.0664,-8.3809 -0.01,-4.4961 -2.583,-4.9629 -5.0948,-8.0175 -3.2783,-3.9903 -1.415,-9.9024 0.3174,-14.4903 0.875,-2.3164 1.5196,-4.5019 0.8457,-6.9629 -0.6855,-2.5039 -2.5576,-4.2597 -2.4375,-7.041 0.2031,-4.6679 4.6836,-8.0273 5.627,-12.7207 0.5605,-2.7988 3.039,-9.6504 0.4082,-11.75" />
		<path
   style="fill:#e6b023"
   inkscape:connector-curvature="0"
   id="path528"
   d="m 246.7189,394.7953 c 0,0 0.2871,12.2402 -1.123,15.9941 -3.6641,9.7559 -21.4219,28.2676 -17.3965,37.8809 1.3545,3.2324 12.7783,4.0429 13.1875,0.5605 1.123,-9.541 10.1016,-19.9219 10.1016,-19.9219 0,0 13.0058,10.6622 13.0058,28.9004 0,3.6348 12.4883,4.1543 14.4942,1.1231 4.5712,-6.9121 -7.5762,-32.2695 -7.5762,-32.2695 0,0 13.1875,9.541 17.1162,18.2792 1.5752,3.5059 12.165,-8.7792 9.8213,-11.8242 -6.0469,-7.8574 -23.6875,-17.9902 -28.6211,-26.3769 -1.5918,-2.7051 0.0469,-10.2051 -2.2461,-12.3457 -3.793,-3.5449 -20.7637,0 -20.7637,0 z" />
		<path
   style="fill:#e6b023"
   inkscape:connector-curvature="0"
   id="path530"
   d="m 322.4806,380.7639 c 2.4922,1.1192 3.4258,7.5821 5.3301,9.541 7.252,7.4512 27.6973,16.4922 32.832,25.5352 1.4102,2.4844 1.084,8.7812 0,11.4238 -0.8359,2.0332 -6.1738,6.2539 -6.1738,6.2539 0,0 1.0586,6.2012 0,7.8555 -1.9785,3.0937 -5.0898,-5.9316 -14.3105,3.2891 -3.2032,3.2031 -3.2793,-13.2305 -5.0508,-17.3985 -1.8867,-4.4316 -12.627,-14.5508 -12.627,-14.5508 0,0 3.4571,29.9629 1.6836,24.1719 -4.209,-13.75 -16.2754,0.7871 -16.2754,-3.3672 0,-6.2539 3.8164,-23.3613 0,-29.7441 -2.2617,-3.7832 -15.5293,-8.3457 -15.5293,-8.3457 0,0 3.9278,-7.3867 6.3262,-7.2402 25.4785,1.5567 18.1094,-9.9765 23.7949,-7.4239 z" />
		<polygon
   style="fill:#ce8c2a"
   id="polygon532"
   points="322.4806,412.7132 326.9689,417.1625 319.7092,407.0316 323.4709,422.6703 " />
		<path
   style="fill:#ce8c2a"
   inkscape:connector-curvature="0"
   id="path534"
   d="m 336.756,406.4613 c 5.3067,9.084 12.3496,15.8183 16.7793,25.373 -0.0234,-2.5703 0.8457,-5.1757 0.6524,-7.6074 -0.252,-3.2012 -2.3789,-4.7676 -4.2813,-7.1133" />
		<path
   style="fill:#ce8c2a"
   inkscape:connector-curvature="0"
   id="path536"
   d="m 266.3605,416.5179 c -0.1924,6.1485 3.3662,19.8985 9.0283,19.8985 -0.9336,-2.17 -2.2773,-6.0059 -3.705,-9.1524 4.8847,3.9434 2.6836,1.5664 11.583,10.4649 -1.1104,-3.252 -3.1944,-8.7071 -6.1631,-12.0528 -3.0567,-3.4433 -7.2949,-5.4687 -10.7432,-8.4882" />
		<path
   style="fill:#ce8c2a"
   inkscape:connector-curvature="0"
   id="path538"
   d="m 251.2756,418.5296 c -2.295,5.2383 -4.9952,9.4219 -7.0567,14.7735 -0.9824,2.5488 -1.6758,12.8281 -2.832,14.8262 1.334,-4.0157 8.9541,-19.2637 10.3144,-18.6524 1.3926,0.625 9.4561,12.3106 10.5254,15.8652 -2.2578,-8.4277 -2.3867,-21.6953 -10.9511,-26.8125" />
		<path
   style="fill:#443614"
   inkscape:connector-curvature="0"
   id="path540"
   d="m 245.2424,50.1327 c 4.4765,-2.4527 6.1269,0.5171 7.3662,4.3232 5.3076,-3.1318 9.0058,1.335 9.1103,6.3692 6.4903,-3.502 8.5381,4.1767 7.3672,9.06 4.8223,-3.5815 6.8418,1.5943 8.6973,4.9527 -1.0274,-5.2041 2.7676,-6.7344 6.9638,-6.9903 0.1514,-5.5688 2.5088,-5.9502 7.0401,-3.6611 0.332,-5.4619 2.7051,-9.9336 8.3633,-5.0376 0.1914,-2.4043 -0.6192,-4.2749 1.7441,-5.3355 1.8242,-0.8188 4.8145,0.4776 5.9746,1.6573 0.1875,-6.1582 3.6992,-4.9659 7.7852,-3.0005 1.5664,-4.2383 6.0605,-5.7788 8.0195,-0.9488 1.5723,-2.9887 6.6426,-2.8837 7.1055,0.9141 2.8847,-2.4805 8.5976,-0.8931 8.3672,3.6978 4.6289,-1.3086 7.75,0.7524 7.3828,5.7065 4.33,-1.5615 6.5215,3.9053 3.998,7.0137 5.0488,-0.2476 8.4219,5.0249 5.1192,9.3887 4.3535,0.9067 4.5761,6.5073 1.9277,9.3676 3.2363,-0.4106 4.6621,1.7949 4.9941,4.7608 0.3516,3.1548 -1.5879,4.5698 -3.4023,5.6987 5.1953,0.0732 5.6328,7.0503 1.1582,8.9766 6.0937,1.0507 4.7051,11.2299 -0.6797,11.2299 1.666,0.5318 2.9863,3.6099 2.252,6.6099 -0.7676,3.1338 -3.9493,3.48 -5.9981,4.1079 1.9453,1.0908 2.793,3.6436 2.3106,5.9487 -0.668,3.1939 -2.2793,4.1709 -5.2618,4.6958 2.4571,2.065 2.3106,5.4717 0.6446,8.043 -2.1192,3.272 -3.8164,4.0733 -7.752,4.0733 0.5801,2.33 0.3223,4.6865 -1.1133,6.6723 -1.6972,2.3501 -3.3593,3.48 -5.9414,3.9229 6.2246,5.5898 -4.2656,11.4311 -8.9609,9.1093 1.8242,5.8755 -4.752,9.3428 -8.7734,7.4419 -0.3809,6.0596 -5.1661,7.2749 -10.3907,6.377 0.5449,7.6582 -7.7597,3.6304 -7.7031,3.3096 -0.375,-0.4966 -1.2461,-1.0445 -1.8242,-1.316 -3.0684,2.1504 -7.0899,9.7383 -16.0742,2.3404 -1.2032,2.727 -4.125,4.0029 -7.3916,4.0034 -3.7803,5e-4 -3.7803,-2.0659 -4.6026,-5.3364 -4.8652,4.2973 -12.7021,4.7495 -12.4609,-3.3428 -1.8574,1.5771 -3.7422,3.96 -6.6641,2.9727 -4.3613,-1.4732 -3.9883,-2.1558 -3.9883,-5.3204 -6.3994,1.7608 -11.5634,0.1763 -11.8007,-7.374 -5.8282,2.3076 -10.2803,-1.1587 -8.7159,-7.4106 -1.874,1.4834 -5.0459,1.4155 -6.582,-0.1201 -2.2236,-2.2237 -2.1396,-3.6104 -2.1396,-6.4844 -4.4014,3.2109 -8.2246,-4.9107 -6.0684,-8.145 -4.2441,1.4843 -9.563,-5.8936 -3.7891,-8.7481 -4.2988,-0.0791 -6.5337,-6.7324 -2.9248,-9.2788 -2.0351,-2.0488 -6.6328,-7.957 -2.623,-10.1426 -1.0147,-2.834 -3.6109,-2.7148 -4.5757,-5.3613 -0.7964,-2.1826 -0.1191,-6.5596 2.23,-7.0903 -0.3667,-3.6075 -4.9365,-10.1328 0.6943,-11.7588 -1.9145,-3.6284 -2.581,-8.4038 1.9795,-9.3589 0.1748,-3.5176 -1.48,-9.4732 3.6123,-9.0523 -0.3125,-2.0097 -1.3984,-4.1484 -0.8799,-6.2998 0.8077,-3.3466 2.5254,-1.3891 3.9707,-3.4384 2.0616,-2.9234 -2.2822,-12.7661 5.4209,-9.0752 0.92,-1.7163 3.1211,-11.6743 6.6485,-5.0376 0.1093,-1.9199 -0.5352,-4.9668 1.3174,-6.292 1.6982,-1.2149 4.6328,0.1279 5.3447,1.935 1.4941,-2.7353 4.6347,-6.8193 6.7383,-1.3994 1.1191,-3.4892 6.3476,-6.1372 8.4384,-2.188" />
		<path
   style="fill:#fffaca"
   inkscape:connector-curvature="0"
   id="path542"
   d="m 275.6486,84.1385 c 0,0 75.8066,-83.0644 83.0645,29.0323 1.7812,27.519 -41.6543,72.1601 -83.0645,72.5805 -32.2578,0.3277 -73.6528,-59.2661 -68.5478,-82.874 20.9677,-96.9644 68.5478,-18.7388 68.5478,-18.7388 z" />
		<path
   style="opacity:0.1;fill:#b86e29"
   inkscape:connector-curvature="0"
   id="path544"
   d="m 293.5138,98.7406 c -2.7773,-5.5318 -5.416,-10.0366 -5.3886,-16.3247 3.0664,4.937 6.6133,8.2871 11.3808,11.539 0.293,-6.4628 0.3594,-13.1001 1.2832,-19.5019 1.8946,2.0381 1.793,5.1133 2.4278,7.7847 0.5605,2.3559 0.6875,7.6225 1.9648,9.4589 1.3418,-4.4697 3.9883,-8.3413 5.6817,-12.5395 1.5429,-3.8281 2.1699,-7.5962 2.8378,-11.5654 2.8868,5.499 4.1172,16.8061 2.6504,23.0688 3.6739,-1.0151 6.3379,-7.2334 7.75,-10.376 1.1387,-2.5356 2.0957,-5.1557 2.6719,-7.7754 0.3809,-1.7343 0.2109,-4.684 1.209,-5.9409 -0.3418,9.333 2.373,18.1133 -1.584,27.0254 6.6191,-2.3003 9.7695,-14.1274 12.6465,-19.5732 0.7324,7.2158 -2.293,18.1089 -7.5527,23.3276 4.7714,-0.1435 13.2519,-4.3213 15.9296,-8.563 -2.7304,7.8653 -8.0195,11.5176 -14.5859,15.5864 5.8594,-0.062 11.9004,0.7706 17.9082,0.732 -3.0039,0.8242 -5.875,3.2783 -8.6055,4.7099 -2.6347,1.3819 -6.8203,1.5518 -8.9863,3.2686 5.043,1.5713 8.0527,5.7402 13.9024,5.0854 -3.2071,1.3809 -6.0547,3.3428 -9.3008,4.709 -2.4239,1.02 -6.0098,1.7451 -7.75,3.355 1.6211,2.3999 3.2285,4.9346 5.7636,6.3745 2.4864,1.4112 5.3711,1.6372 7.5918,3.604 -7.0859,2.2642 -14.7265,-1.1137 -21.9882,-2.2378 -0.4571,3.6187 1.0175,6.5806 2.9824,9.354 1.5117,2.1353 3.9629,6.2261 6.3437,7.1197 -5.1757,1.7119 -8.707,-2.0347 -11.457,-5.9488 -1.7832,-2.539 -3.2187,-3.9863 -5.2949,-6.1352 -1.502,-1.5552 -3.4746,-3.6861 -4.668,-5.3272 -2.4394,4.0708 -3.4492,8.2837 -3.6953,13.0557 -0.2051,3.9922 1.3008,7.7559 0.9551,11.2949 -2.3848,-1.0371 -5.5918,-8.5161 -6.5625,-11.2095 -1.3399,-3.7216 -2.2051,-9.1035 -2.1543,-13.1909 -2.6914,-0.3056 -5.0117,2.7676 -6.7285,4.5498 -1.3496,1.4034 -2.711,1.5996 -2.253,-1.5166 0.4678,-3.1811 1.7041,-5.436 2.8799,-8.3305 -2.3183,-0.1636 -4.2656,0.3398 -6.5869,-0.5171 -1.8525,-0.6836 -3.7822,-1.9468 -5.5967,-2.8775 3.9356,0.1675 9.4766,-2.289 11.8672,-5.3882 -5.5234,-0.1391 -12.0498,-3.1303 -15.2109,-7.9536 6.3945,-0.9526 11.7304,-1.0971 17.875,-3.8476 -8.0274,0.1201 -9.8946,-4.4146 -13.5078,-10.249 4.6464,1.541 7.9345,2.5566 12.955,2.5566" />
		<path
   style="opacity:0.1;fill:#b86e29"
   inkscape:connector-curvature="0"
   id="path546"
   d="m 234.5148,91.0301 c 2.2647,-1.4951 0.9131,-9.3452 1.417,-12.0678 0.7188,-3.8877 2.2051,-8.3501 4.2959,-11.7398 0.9014,7.4707 -0.8701,15.1807 2.4424,22.5147 0.8769,-4.7198 5.9033,-14.19 10.3057,-17.6934 -0.3838,6.3799 -0.9903,12.772 -0.6436,19.271 3.4414,0.418 8.6328,-4.2544 12.3164,-4.9175 -3.0137,3.7168 -5.5996,6.729 -7.3135,11.2046 4.9815,0.8018 10.5401,-0.1514 15.6114,0.1914 -2.4102,2.2959 -9.3975,6.1021 -10.0352,9.9903 -0.6436,3.9213 8.0029,9.6503 10.9756,12.0263 -3.0967,-0.1811 -7.6836,0.8794 -10.5156,2.1197 1.539,2.5527 1.6601,6.6865 2.8974,9.664 1.1514,2.7695 2.8594,5.9356 2.3897,8.9976 -2.5684,-0.4966 -4.6905,-3.3955 -6.9317,-4.8672 0.1289,6.6098 -2.625,16.4023 -6.705,21.3105 1.8339,-2.8193 0.7187,-6.6836 0.2685,-9.9384 -0.5635,-4.0728 0.005,-7.7413 -2.0596,-11.4458 -2.8525,2.1386 -4.0605,9.4721 -6.2304,12.8779 -1.2149,1.9082 -4.7842,6.8237 -6.7373,7.147 -0.1143,-4.0069 -1.2246,-7.6597 -1.3897,-11.7037 -0.0859,-2.1396 0.9844,-7.3125 -0.4043,-8.9487 -1.5635,-1.8423 -4.7754,0.8345 -7.0293,1.5986 -2.8457,0.9659 -5.7109,1.9258 -8.6406,2.2764 4.3652,-2.9189 5.4609,-6.4375 5.3203,-11.6206 -4.0488,0.6782 -7.5205,0.1851 -11.0107,-1.8027 2.7724,-2.9107 7.6845,-5.833 9,-9.8306 -4.3701,-0.5493 -9.9131,-2.5561 -12.3682,-6.7798 2.9707,-1.4204 6.5645,-1.331 9.2754,-3.3623 -6.1904,-0.2881 -6.9365,-7.6284 -9.5117,-11.6626 3.8047,0.3106 7.7744,2.9942 11.916,2.4961 -0.4981,-2.9067 -2.1748,-5.772 -2.6484,-8.9199 -0.5098,-3.396 -0.3252,-6.9131 -0.3252,-10.3687 -0.1993,6.5113 3.8252,12.5962 8.6748,16.564 -0.8467,-6.0981 -2.8379,-14.2998 -0.2862,-20.1865 1.0576,2.9463 1.1934,6.6743 2.0117,9.9678 0.626,2.519 1.7901,5.0253 2.3389,7.6381" />
		<path
   style="fill:#ce8c2a"
   inkscape:connector-curvature="0"
   id="path548"
   d="m 232.7052,100.8768 c 1.4063,-3.8598 13.2227,-10.1181 20.5352,0.6382 4.2617,6.269 4.5186,18.1362 4.375,25.1553 -1.9014,-0.4366 -2.8535,-2.5879 -4.5947,-2.8062 -0.7852,-0.0986 -5.1631,1.1021 -6.0938,1.1021 -4.1416,5e-4 -7.2383,-0.7075 -9.7881,-4.0635 -2.1699,-2.8535 -2.7343,-5.6665 -3.2734,-9.2871 -0.4717,-3.1651 0.5186,-7.9429 -1.1602,-10.7388" />
		
			<ellipse
   style="fill:#231f20"
   id="ellipse550"
   ry="11.9801"
   rx="8.9970999"
   cy="111.8231"
   cx="245.4201"
   transform="matrix(0.8299,-0.5579,0.5579,0.8299,-20.6422,155.9399)" />
		<path
   style="fill:#ffffff"
   inkscape:connector-curvature="0"
   id="path552"
   d="m 246.5822,105.1073 c -3.3506,-0.7095 -4.5176,3.6118 -1.6758,5.0444 3.7617,1.896 6.8692,-3.5937 2.3467,-5.0444" />
		<path
   style="fill:#ffffff"
   inkscape:connector-curvature="0"
   id="path554"
   d="m 242.5597,102.7611 c -5.79,-0.8066 -8.5498,9.8393 -2.9931,10.9355 -0.0381,-1.644 -0.4571,-4.0893 0.2207,-5.5883 0.8457,-1.8677 2.3428,-3.0791 4.332,-3.9405" />
		<path
   style="fill:#ce8c2a"
   inkscape:connector-curvature="0"
   id="path556"
   d="m 300.6213,124.9662 c 7.8515,0 16.2265,4.7822 22.3535,-2.3291 3.0312,-3.5176 4.0703,-7.4317 4.2812,-11.8926 0.1895,-4.0029 -1.6699,-8.0127 -0.2539,-11.8555 -4.6152,-0.1137 -8.4277,-3.0508 -13.0254,-3.5337 -4.6132,-0.4843 -10.3359,1.1368 -13.291,4.6441 -5.793,6.872 -3.0801,17.9443 -2.9238,26.0903 1.0859,-0.3047 2.5312,-0.7187 3.4394,-1.1235" />
		<ellipse
   style="fill:#231f20"
   id="ellipse558"
   ry="13.7861"
   rx="12.1895"
   cy="111.7606"
   cx="312.51971" />
		<path
   style="fill:#ffffff"
   inkscape:connector-curvature="0"
   id="path560"
   d="m 308.2638,105.1664 c -3.3808,0.5844 -1.5,6.7915 2.3516,6.04 3.9531,-0.771 1.1113,-6.4521 -2.3516,-6.04" />
		<path
   style="fill:#ffffff"
   inkscape:connector-curvature="0"
   id="path562"
   d="m 312.176,102.8959 c 1.4746,0.7622 4.2402,5.0434 4.9277,6.9292 0.8867,2.4394 0.9805,5.1059 0.9805,7.6435 2.5019,-1.4844 3.2148,-7.2265 2.3867,-9.9541 -1.2266,-4.0376 -4.8926,-4.2041 -8.2949,-4.6186 1.7617,1.1123 -0.377,-0.3077 0,0" />
		<path
   style="fill:#cfa52b"
   inkscape:connector-curvature="0"
   id="path564"
   d="m 269.131,153.1087 c 2.7666,-4.3481 18.3867,-4.6469 20.6153,0 2.6308,5.4849 -10.3077,22.0411 -10.3077,22.0411 0,0 -13.5732,-16.9092 -10.3076,-22.0411 z" />
	</g>
</svg>